<svg width="86" height="86" viewBox="0 0 86 86" fill="none" xmlns="http://www.w3.org/2000/svg">
<g id="&#208;&#161;&#208;&#187;&#208;&#190;&#208;&#185;_1" clip-path="url(#clip0_44_3238)">
<path id="Vector" d="M79.2812 16.125H6.71875C3.75022 16.125 1.34375 18.5315 1.34375 21.5V79.2812C1.34375 82.2498 3.75022 84.6562 6.71875 84.6562H79.2812C82.2498 84.6562 84.6562 82.2498 84.6562 79.2812V21.5C84.6562 18.5315 82.2498 16.125 79.2812 16.125Z" fill="#FFF3E0"/>
<path id="Vector_2" d="M79.2812 14.7812H72.5222C72.4475 13.2711 72.2224 11.7721 71.8503 10.3066C70.258 4.03125 66.3141 0 61.8125 0C56.0881 0 51.5395 6.38953 51.1028 14.7812H34.8972C34.8225 13.2711 34.5974 11.7721 34.2253 10.3066C32.633 4.03125 28.6891 0 24.1875 0C18.4631 0 13.9145 6.38953 13.4778 14.7812H6.71875C4.93683 14.7812 3.22789 15.4891 1.96788 16.7491C0.707866 18.0091 0 19.7181 0 21.5L0 79.2812C0 81.0632 0.707866 82.7721 1.96788 84.0321C3.22789 85.2921 4.93683 86 6.71875 86H79.2812C81.0632 86 82.7721 85.2921 84.0321 84.0321C85.2921 82.7721 86 81.0632 86 79.2812V21.5C86 19.7181 85.2921 18.0091 84.0321 16.7491C82.7721 15.4891 81.0632 14.7812 79.2812 14.7812ZM61.8125 2.6875C64.9972 2.6875 67.987 6.01328 69.2502 10.9717C69.5627 12.2207 69.7584 13.496 69.8347 14.7812H53.7903C54.2136 8.10281 57.7141 2.6875 61.8125 2.6875ZM24.1875 2.6875C27.3722 2.6875 30.362 6.04688 31.6252 10.9717C31.9377 12.2207 32.1334 13.496 32.2097 14.7812H16.1653C16.5886 8.10281 20.0891 2.6875 24.1875 2.6875ZM83.3125 79.2812C83.3125 80.3504 82.8878 81.3758 82.1318 82.1318C81.3758 82.8878 80.3504 83.3125 79.2812 83.3125H6.71875C5.6496 83.3125 4.62423 82.8878 3.86823 82.1318C3.11222 81.3758 2.6875 80.3504 2.6875 79.2812V21.5C2.6875 20.4308 3.11222 19.4055 3.86823 18.6495C4.62423 17.8935 5.6496 17.4688 6.71875 17.4688H13.4778C13.9145 25.8605 18.4631 32.25 24.1875 32.25C24.5439 32.25 24.8857 32.1084 25.1377 31.8564C25.3897 31.6044 25.5312 31.2626 25.5312 30.9062C25.5312 30.5499 25.3897 30.2081 25.1377 29.9561C24.8857 29.7041 24.5439 29.5625 24.1875 29.5625C20.0891 29.5625 16.5886 24.1472 16.1653 17.4688H51.1028C51.5395 25.8605 56.0881 32.25 61.8125 32.25C62.1689 32.25 62.5107 32.1084 62.7627 31.8564C63.0147 31.6044 63.1562 31.2626 63.1562 30.9062C63.1562 30.5499 63.0147 30.2081 62.7627 29.9561C62.5107 29.7041 62.1689 29.5625 61.8125 29.5625C57.7141 29.5625 54.2136 24.1472 53.7903 17.4688H79.2812C80.3504 17.4688 81.3758 17.8935 82.1318 18.6495C82.8878 19.4055 83.3125 20.4308 83.3125 21.5V79.2812Z" fill="#404040"/>
<path id="Vector_3" d="M73.9062 41.6562H12.0938C11.7374 41.6562 11.3956 41.5147 11.1436 41.2627C10.8916 41.0107 10.75 40.6689 10.75 40.3125C10.75 39.9561 10.8916 39.6143 11.1436 39.3623C11.3956 39.1103 11.7374 38.9688 12.0938 38.9688H73.9062C74.2626 38.9688 74.6044 39.1103 74.8564 39.3623C75.1084 39.6143 75.25 39.9561 75.25 40.3125C75.25 40.6689 75.1084 41.0107 74.8564 41.2627C74.6044 41.5147 74.2626 41.6562 73.9062 41.6562Z" fill="#404040"/>
<path id="Vector_4" d="M12.0938 65.8438H24.1875V73.9062H12.0938V65.8438Z" fill="#FFE0B2"/>
<path id="Vector_5" d="M24.1875 75.25H12.0938C11.7374 75.25 11.3956 75.1084 11.1436 74.8564C10.8916 74.6044 10.75 74.2626 10.75 73.9062V65.8438C10.75 65.4874 10.8916 65.1456 11.1436 64.8936C11.3956 64.6416 11.7374 64.5 12.0938 64.5H24.1875C24.5439 64.5 24.8857 64.6416 25.1377 64.8936C25.3897 65.1456 25.5312 65.4874 25.5312 65.8438V73.9062C25.5312 74.2626 25.3897 74.6044 25.1377 74.8564C24.8857 75.1084 24.5439 75.25 24.1875 75.25ZM13.4375 72.5625H22.8438V67.1875H13.4375V72.5625Z" fill="#404040"/>
<path id="Vector_6" d="M36.9531 65.8438H49.0469V73.9062H36.9531V65.8438Z" fill="#FFE0B2"/>
<path id="Vector_7" d="M49.0469 75.25H36.9531C36.5967 75.25 36.255 75.1084 36.0029 74.8564C35.7509 74.6044 35.6094 74.2626 35.6094 73.9062V65.8438C35.6094 65.4874 35.7509 65.1456 36.0029 64.8936C36.255 64.6416 36.5967 64.5 36.9531 64.5H49.0469C49.4033 64.5 49.745 64.6416 49.9971 64.8936C50.2491 65.1456 50.3906 65.4874 50.3906 65.8438V73.9062C50.3906 74.2626 50.2491 74.6044 49.9971 74.8564C49.745 75.1084 49.4033 75.25 49.0469 75.25ZM38.2969 72.5625H47.7031V67.1875H38.2969V72.5625Z" fill="#404040"/>
<path id="Vector_8" d="M61.8125 65.9175H73.9062V73.9061H61.8125V65.9175Z" fill="#FFE0B2"/>
<path id="Vector_9" d="M73.9062 75.2498H61.8125C61.4561 75.2498 61.1143 75.1083 60.8623 74.8562C60.6103 74.6042 60.4688 74.2625 60.4688 73.9061V65.9175C60.4688 65.5611 60.6103 65.2193 60.8623 64.9673C61.1143 64.7153 61.4561 64.5737 61.8125 64.5737H73.9062C74.2626 64.5737 74.6044 64.7153 74.8564 64.9673C75.1084 65.2193 75.25 65.5611 75.25 65.9175V73.9061C75.25 74.2625 75.1084 74.6042 74.8564 74.8562C74.6044 75.1083 74.2626 75.2498 73.9062 75.2498ZM63.1562 72.5623H72.5625V67.2612H63.1562V72.5623Z" fill="#404040"/>
<path id="Vector_10" d="M36.9531 49.7188H49.0469V57.7812H36.9531V49.7188Z" fill="#FFE0B2"/>
<path id="Vector_11" d="M49.0469 59.125H36.9531C36.5967 59.125 36.255 58.9834 36.0029 58.7314C35.7509 58.4794 35.6094 58.1376 35.6094 57.7812V49.7188C35.6094 49.3624 35.7509 49.0206 36.0029 48.7686C36.255 48.5166 36.5967 48.375 36.9531 48.375H49.0469C49.4033 48.375 49.745 48.5166 49.9971 48.7686C50.2491 49.0206 50.3906 49.3624 50.3906 49.7188V57.7812C50.3906 58.1376 50.2491 58.4794 49.9971 58.7314C49.745 58.9834 49.4033 59.125 49.0469 59.125ZM38.2969 56.4375H47.7031V51.0625H38.2969V56.4375Z" fill="#404040"/>
<path id="Vector_12" d="M67.8594 47.0312L70.2445 51.1834L74.9275 52.1644L71.7092 55.7119L72.2266 60.4688L67.8594 58.5136L63.4922 60.4688L64.0095 55.7119L60.7913 52.1644L65.4742 51.1834L67.8594 47.0312Z" fill="#FFE082"/>
<path id="Vector_13" d="M72.2266 61.8123C72.0372 61.8114 71.8499 61.7726 71.6757 61.6981L67.8594 59.9848L64.0432 61.6981C63.8295 61.7938 63.5945 61.8321 63.3614 61.809C63.1284 61.7859 62.9054 61.7023 62.7146 61.5665C62.5239 61.4307 62.3719 61.2475 62.2737 61.0348C62.1756 60.8222 62.1348 60.5876 62.1552 60.3543L62.6054 56.1954L59.7969 53.0779C59.6382 52.9027 59.5285 52.6887 59.4789 52.4575C59.4293 52.2263 59.4416 51.9861 59.5145 51.7612C59.5874 51.5363 59.7184 51.3346 59.8942 51.1765C60.07 51.0184 60.2845 50.9095 60.5159 50.8607L64.6143 50.0007L66.6971 46.3726C66.8152 46.169 66.9848 46 67.1888 45.8825C67.3928 45.765 67.624 45.7031 67.8594 45.7031C68.0949 45.7031 68.3261 45.765 68.5301 45.8825C68.7341 46 68.9037 46.169 69.0218 46.3726L71.1046 50.0007L75.203 50.8607C75.4344 50.9095 75.6488 51.0184 75.8247 51.1765C76.0005 51.3346 76.1315 51.5363 76.2044 51.7612C76.2773 51.9861 76.2896 52.2263 76.24 52.4575C76.1904 52.6887 76.0807 52.9027 75.9219 53.0779L73.1135 56.182L73.5637 60.3409C73.5882 60.5762 73.5502 60.8138 73.4534 61.0297C73.3567 61.2456 73.2047 61.4321 73.0127 61.5704C72.7824 61.7312 72.5075 61.8158 72.2266 61.8123ZM67.8594 57.1696C68.0491 57.1684 68.2369 57.2073 68.4104 57.2839L70.641 58.285L70.379 55.8528C70.3588 55.6653 70.3783 55.4757 70.4361 55.2963C70.494 55.1169 70.589 54.9517 70.7149 54.8114L72.3543 52.9973L69.9624 52.4934C69.7752 52.4512 69.5992 52.3695 69.4462 52.2536C69.2932 52.1377 69.1668 51.9904 69.0755 51.8215L67.8594 49.7186L66.6434 51.835C66.5521 52.0038 66.4257 52.1511 66.2727 52.267C66.1197 52.3829 65.9437 52.4647 65.7565 52.5068L63.3646 53.0107L65.004 54.8248C65.1299 54.9651 65.2249 55.1303 65.2828 55.3098C65.3406 55.4892 65.3601 55.6788 65.3399 55.8662L65.0779 58.2984L67.3085 57.2973C67.481 57.2162 67.6688 57.1726 67.8594 57.1696Z" fill="#404040"/>
<path id="Vector_14" d="M12.0938 49.7188H24.1875V57.7812H12.0938V49.7188Z" fill="#FFE0B2"/>
<path id="Vector_15" d="M24.1875 59.125H12.0938C11.7374 59.125 11.3956 58.9834 11.1436 58.7314C10.8916 58.4794 10.75 58.1376 10.75 57.7812V49.7188C10.75 49.3624 10.8916 49.0206 11.1436 48.7686C11.3956 48.5166 11.7374 48.375 12.0938 48.375H24.1875C24.5439 48.375 24.8857 48.5166 25.1377 48.7686C25.3897 49.0206 25.5312 49.3624 25.5312 49.7188V57.7812C25.5312 58.1376 25.3897 58.4794 25.1377 58.7314C24.8857 58.9834 24.5439 59.125 24.1875 59.125ZM13.4375 56.4375H22.8438V51.0625H13.4375V56.4375Z" fill="#404040"/>
</g>
<defs>
<clipPath id="clip0_44_3238">
<rect width="86" height="86" fill="white"/>
</clipPath>
</defs>
</svg>
