<svg width="87" height="87" viewBox="0 0 87 87" fill="none" xmlns="http://www.w3.org/2000/svg">
<g id="Layer_1" clip-path="url(#clip0_44_3373)">
<g id="Group">
<path id="Vector" d="M41.8711 84.3717C64.6278 84.3717 83.0758 65.9237 83.0758 43.167C83.0758 20.4103 64.6278 1.9624 41.8711 1.9624C19.1144 1.9624 0.666504 20.4103 0.666504 43.167C0.666504 65.9237 19.1144 84.3717 41.8711 84.3717Z" fill="#FF4800"/>
<g id="Group_2">
<path id="Vector_2" d="M62.5258 64.5278H62.6304V56.9017C62.6304 56.7709 62.6566 56.6401 62.722 56.5093C62.8659 56.2215 66.3192 49.3802 67.9805 46.7248C68.3075 46.2147 68.4645 45.626 68.4645 45.0112V37.8037C68.4645 36.6918 67.6273 35.7238 66.5808 35.6453C65.9791 35.6061 65.4167 35.8154 64.9981 36.234C64.6318 36.6002 64.4094 37.1235 64.4094 37.6598V41.8587C64.4094 42.0942 64.3179 42.3166 64.1478 42.4735C63.9778 42.6305 63.7423 42.7221 63.533 42.7221C63.5199 42.7221 61.1785 42.6828 59.648 44.1871C58.7454 45.0766 58.2745 46.3585 58.2745 47.9936C58.2745 48.4646 57.8952 48.857 57.4112 48.857C56.9272 48.857 56.5479 48.4776 56.5479 47.9936C56.5479 45.8746 57.1888 44.174 58.4446 42.9445C59.8311 41.5971 61.6232 41.1785 62.6828 41.0608V37.6729V25.5469C62.6828 24.5266 61.9241 23.6371 60.9823 23.5717C60.4198 23.5325 59.9227 23.7287 59.5434 24.1081C59.1902 24.4612 58.994 24.9191 58.994 25.4031V34.5596C58.994 35.0305 58.6146 35.423 58.1306 35.423C57.6466 35.423 57.2673 35.0436 57.2673 34.5596V25.4031V22.0674C57.2673 21.0341 56.5086 20.1446 55.5668 20.0792C55.0174 20.0399 54.5203 20.2361 54.1279 20.6155C53.7878 20.9556 53.5916 21.4265 53.5916 21.9105V24.0688V34.5335C53.5916 35.0044 53.2122 35.3968 52.7282 35.3968C52.2443 35.3968 51.8649 35.0175 51.8649 34.5335V24.0688C51.8649 23.0616 51.0408 22.2375 50.0205 22.2375C49.5365 22.2375 49.0656 22.4337 48.7124 22.7738C48.3723 23.1139 48.1892 23.5848 48.1892 24.0688V29.9029V34.5466C48.1892 35.0175 47.8098 35.4099 47.3259 35.4099C46.8419 35.4099 46.4625 35.0305 46.4625 34.5466V29.9029C46.4625 28.8826 45.6384 28.0585 44.6181 28.0585C44.1341 28.0585 43.6632 28.2547 43.3231 28.6079C42.983 28.948 42.7868 29.4189 42.7868 29.9159V37.9345C43.8987 37.215 45.2068 36.8226 46.5672 36.8226C50.4129 36.8226 53.5393 39.9489 53.5393 43.7947C53.5393 47.9282 49.942 51.5778 46.7895 53.9847L47.4174 55.6721C47.4567 55.7637 47.4697 55.8683 47.4697 55.973V64.5409H36.1287V55.973C36.1287 55.8683 36.1417 55.7637 36.181 55.6721L36.8089 53.9716C33.6564 51.5647 30.0592 47.9152 30.0592 43.7816C30.0592 39.9359 33.1855 36.8095 37.0312 36.8095C38.4832 36.8095 39.8829 37.2674 41.0471 38.0915V30.4915C40.9032 30.3345 40.8116 30.1383 40.8116 29.9159C40.8116 29.4189 40.6285 28.961 40.2753 28.6079C39.9221 28.2547 39.4643 28.0585 38.9672 28.0585C37.9469 28.0585 37.1228 28.8826 37.1228 29.9029V34.5466C37.1228 35.0175 36.7435 35.4099 36.2595 35.4099C35.7755 35.4099 35.3961 35.0305 35.3961 34.5466V29.9159V24.0819C35.3961 23.5979 35.1999 23.127 34.8598 22.7738C34.5197 22.4337 34.0488 22.2506 33.5648 22.2506C32.5445 22.2506 31.7204 23.0747 31.7204 24.0819V34.5466C31.7204 35.0175 31.3411 35.4099 30.8571 35.4099C30.3731 35.4099 29.9938 35.0305 29.9938 34.5466V24.0819V21.9236C29.9938 21.4265 29.7975 20.9687 29.4574 20.6155C29.065 20.223 28.5549 20.053 28.0186 20.0792C27.0767 20.1446 26.318 21.0341 26.318 22.0674V25.4031V34.5596C26.318 35.0305 25.9387 35.423 25.4547 35.423C24.9707 35.423 24.5914 35.0436 24.5914 34.5596V25.4031C24.5914 24.9191 24.3952 24.4482 24.042 24.095C23.6626 23.7156 23.1525 23.5194 22.6031 23.5717C21.6613 23.6371 20.9026 24.5266 20.9026 25.5469V37.6729V41.0477C21.9621 41.1655 23.7542 41.584 25.1408 42.9314C26.3965 44.161 27.0375 45.8484 27.0375 47.9806C27.0375 48.4515 26.6581 48.8439 26.1742 48.8439C25.6902 48.8439 25.3108 48.4646 25.3108 47.9806C25.3108 46.3455 24.853 45.0635 23.9373 44.174C22.42 42.6828 20.0785 42.7221 20.0523 42.709C19.8038 42.709 19.5945 42.6305 19.4375 42.4605C19.2675 42.3035 19.1759 42.0811 19.1759 41.8457V37.6729C19.1759 37.1366 18.9666 36.6264 18.5873 36.2471C18.1687 35.8285 17.6062 35.6192 17.0045 35.6584C15.9711 35.7238 15.1208 36.6918 15.1208 37.8168V45.0243C15.1208 45.626 15.2909 46.2277 15.6048 46.7379C17.2661 49.3933 20.7194 56.2346 20.8633 56.5224C20.9287 56.6401 20.9549 56.7709 20.9549 56.9148V64.5409H21.0595C20.5886 64.5409 20.1962 64.9202 20.1962 65.4042C20.1962 65.8882 20.5756 66.2676 21.0595 66.2676H62.3688C62.8397 66.2676 63.2322 65.8882 63.2322 65.4042C63.2322 64.9202 62.9967 64.5278 62.5258 64.5278Z" fill="white"/>
<path id="Vector_3" d="M69.341 64.5278H66.908C66.4371 64.5278 66.0447 64.9072 66.0447 65.3912C66.0447 65.8752 66.424 66.2545 66.908 66.2545H69.341C69.812 66.2545 70.2044 65.8752 70.2044 65.3912C70.2044 64.9072 69.812 64.5278 69.341 64.5278Z" fill="white"/>
<path id="Vector_4" d="M16.8345 64.5278H14.4014C13.9305 64.5278 13.5381 64.9072 13.5381 65.3912C13.5381 65.8752 13.9174 66.2545 14.4014 66.2545H16.8345C17.3054 66.2545 17.6978 65.8752 17.6978 65.3912C17.6978 64.9072 17.3054 64.5278 16.8345 64.5278Z" fill="white"/>
<path id="Vector_5" d="M37.1098 38.5356C34.2059 38.5356 31.8513 40.8902 31.8513 43.7941C31.8513 49.2358 39.9614 54.128 41.8712 55.2006C43.781 54.128 51.8781 49.2358 51.8781 43.7941C51.8781 40.9033 49.5235 38.5356 46.6196 38.5356C45.0237 38.5356 43.5325 39.242 42.5384 40.4847C42.3814 40.6809 42.1329 40.7986 41.8712 40.7986C41.6096 40.7986 41.3742 40.6809 41.2041 40.4847C40.1969 39.242 38.7057 38.5356 37.1098 38.5356ZM46.0571 40.6547C48.1108 40.6547 49.7721 42.316 49.7721 44.3566C49.7721 44.8275 49.3927 45.22 48.9087 45.22C48.4247 45.22 48.0454 44.8406 48.0454 44.3566C48.0454 43.2578 47.1428 42.3683 46.044 42.3683C45.5731 42.3683 45.1807 41.989 45.1807 41.505C45.1807 41.021 45.5862 40.6547 46.0571 40.6547Z" fill="white"/>
</g>
</g>
</g>
<defs>
<clipPath id="clip0_44_3373">
<rect width="86.3335" height="86.3335" fill="white" transform="translate(0.666504)"/>
</clipPath>
</defs>
</svg>
