<svg width="87" height="86" viewBox="0 0 87 86" fill="none" xmlns="http://www.w3.org/2000/svg">
<g id="Frame" clip-path="url(#clip0_44_3297)">
<g id="Layer_x0020_1">
<g id="_321401952">
<path id="_321404520" fill-rule="evenodd" clip-rule="evenodd" d="M43.3731 1.32286C20.3701 1.32286 1.65631 20.0194 1.65631 43C1.6567 65.9806 20.3527 84.6771 43.3335 84.6771C66.3142 84.6769 85.0106 65.9808 85.0106 43C85.0108 20.0399 66.3331 1.34349 43.3731 1.32286ZM43.3335 86C31.8483 86 21.0486 81.5279 12.928 73.4055C4.80553 65.2846 0.333252 54.4851 0.333252 43C0.333252 31.501 4.81049 20.6981 12.9383 12.5808C21.0645 4.46851 31.8723 0 43.3729 0C54.8515 0.0103162 65.6405 4.48756 73.7526 12.6066C81.8669 20.7273 86.3335 31.5218 86.3335 43C86.3336 54.4851 81.8614 65.2848 73.7389 73.4055C65.6181 81.5279 54.8204 86.0002 43.3335 86Z" fill="black"/>
<path id="_321404616" fill-rule="evenodd" clip-rule="evenodd" d="M16.6901 26.4967C16.5661 26.4967 16.4421 26.464 16.3318 26.3915C16.0255 26.1934 15.9356 25.7835 16.1336 25.477C22.1289 16.1932 32.3114 10.6514 43.3728 10.6514C43.7384 10.6514 44.0344 10.9478 44.0344 11.313C44.0346 11.678 43.738 11.9744 43.3728 11.9744C32.763 11.9742 22.9951 17.2907 17.2466 26.1951C17.1192 26.39 16.9071 26.4967 16.6901 26.4967ZM18.1925 62.9489C17.9945 62.9489 17.7979 62.8592 17.6685 62.6904C13.2947 57.0002 10.9846 50.1907 10.9846 43.0001C10.9846 39.6288 11.5014 36.304 12.5211 33.1205C12.6334 32.7725 13.0036 32.5813 13.3534 32.6916C13.7014 32.8035 13.8924 33.1756 13.7805 33.5236C12.804 36.5778 12.3077 39.7665 12.3077 43.0001C12.3079 49.8976 14.5231 56.4268 18.716 61.8843C18.9402 62.1736 18.8849 62.5888 18.5954 62.811C18.4752 62.9038 18.3335 62.9489 18.1925 62.9489ZM68.4741 62.9489C68.3331 62.9489 68.1918 62.904 68.0712 62.811C67.782 62.5888 67.7282 62.1736 67.9506 61.8843C72.1437 56.4266 74.359 49.8961 74.359 43.0001C74.3594 34.7261 71.1427 26.9447 65.2993 21.0874C65.0412 20.8289 65.0426 20.4105 65.3011 20.152C65.5594 19.8951 65.978 19.8953 66.2365 20.1538C72.3282 26.2606 75.682 34.3745 75.682 43.0001C75.6822 50.1905 73.3718 56.9986 68.9997 62.6904C68.8689 62.8592 68.6723 62.9489 68.4741 62.9489ZM43.3333 75.3488C36.1429 75.3488 29.3348 73.0387 23.6428 68.6664C23.3536 68.4424 23.3002 68.0274 23.5224 67.738C23.7446 67.4483 24.1598 67.3934 24.4491 67.6173C29.9068 71.8103 36.4373 74.0257 43.3333 74.0257C50.2313 74.0257 56.7617 71.8103 62.2174 67.6173C62.507 67.3934 62.922 67.4485 63.146 67.738C63.3684 68.0272 63.3131 68.4424 63.0236 68.6664C57.3336 73.0385 50.5255 75.3488 43.3333 75.3488Z" fill="black"/>
<path id="_321404328" fill-rule="evenodd" clip-rule="evenodd" d="M43.3331 64.6971C31.3693 64.6971 21.6357 54.964 21.6357 42.9999C21.6357 37.1909 23.896 31.7388 28.0028 27.6438C32.1031 23.5541 37.562 21.3027 43.3726 21.3027C43.7383 21.3027 44.0342 21.5989 44.0342 21.9642C44.0344 22.3292 43.7379 22.6258 43.3726 22.6258C32.1166 22.6256 22.9588 31.7646 22.9588 42.9999C22.9592 54.2353 32.0994 63.3743 43.3331 63.3743C54.5687 63.3741 63.7091 54.2353 63.7091 42.9999C63.7093 37.5716 61.5988 32.4641 57.7675 28.6189C57.5092 28.3604 57.5108 27.9418 57.7693 27.6835C58.0278 27.4268 58.4462 27.4268 58.7047 27.6853C62.784 31.78 65.0321 37.2187 65.0321 42.9999C65.0321 54.964 55.2972 64.6973 43.3331 64.6971Z" fill="black"/>
<path id="_321404088" fill-rule="evenodd" clip-rule="evenodd" d="M43.3333 54.0459C37.2421 54.0459 32.2874 49.0915 32.2874 43C32.2874 36.9085 37.259 31.9541 43.3727 31.9541C43.7384 31.9541 44.0344 32.2487 44.0344 32.6157C44.0346 32.9808 43.738 33.2754 43.3727 33.2754C37.9894 33.2754 33.6104 37.6389 33.6104 43C33.6106 48.3609 37.9722 52.7246 43.3333 52.7246C48.6963 52.7246 53.0579 48.3611 53.0579 43C53.0579 40.416 52.0552 37.9835 50.2344 36.1506C49.9777 35.8905 49.9793 35.4719 50.2378 35.2152C50.4983 34.9567 50.9165 34.9585 51.175 35.2186C53.2426 37.3013 54.3807 40.0646 54.3807 43C54.3809 49.0913 49.4246 54.0459 43.3333 54.0459Z" fill="black"/>
<path id="_321404280" fill-rule="evenodd" clip-rule="evenodd" d="M43.3333 86.0002C42.9683 86.0002 42.6719 85.704 42.6719 85.3387L42.6721 46.8384C42.6721 46.473 42.9681 46.1768 43.3333 46.1768C43.6985 46.1766 43.9947 46.4732 43.9947 46.8384L43.9951 85.3385C43.9951 85.704 43.6985 86.0004 43.3333 86.0002Z" fill="black"/>
<path id="_321404736" fill-rule="evenodd" clip-rule="evenodd" d="M43.3731 39.8232C43.0078 39.8232 42.7114 39.527 42.7114 39.162L42.7118 0.661429C42.7118 0.296195 43.0076 0 43.3729 0C43.7385 0 44.0345 0.296195 44.0345 0.661429L44.0347 39.1618C44.0347 39.527 43.7381 39.8234 43.3731 39.8232Z" fill="black"/>
<path id="_321404448" fill-rule="evenodd" clip-rule="evenodd" d="M39.4952 43.6616H0.994635C0.629599 43.6616 0.333008 43.3652 0.333008 43C0.333008 42.6348 0.629401 42.3386 0.994635 42.3386L39.4952 42.3384C39.8604 42.3384 40.1566 42.6348 40.1566 43C40.1568 43.3652 39.8602 43.6616 39.4952 43.6616ZM85.6718 43.6616H47.1712C46.8062 43.6616 46.5098 43.3652 46.5098 43C46.51 42.6348 46.8062 42.3386 47.1712 42.3386L85.6718 42.3384C86.0374 42.3384 86.3332 42.6348 86.3332 43C86.3334 43.3652 86.037 43.6616 85.6718 43.6616Z" fill="black"/>
<path id="_321404688" fill-rule="evenodd" clip-rule="evenodd" d="M43.3334 39.8229C41.5814 39.8229 40.1568 41.2477 40.1568 42.9997C40.157 44.7516 41.5814 46.1763 43.3334 46.1763C45.0854 46.1761 46.5118 44.7516 46.5118 42.9997C46.5118 41.2475 45.0854 39.8231 43.3334 39.8229ZM43.3334 47.4993C40.8527 47.4993 38.8337 45.4803 38.8337 42.9997C38.8337 40.5172 40.8527 38.5 43.3334 38.5C45.816 38.4998 47.8348 40.5172 47.8348 42.9997C47.8348 45.4803 45.8158 47.4993 43.3334 47.4993Z" fill="black"/>
<path id="_321404208" fill-rule="evenodd" clip-rule="evenodd" d="M46.0759 40.9741C45.9069 40.9741 45.7363 40.9104 45.6071 40.7812C45.3488 40.5227 45.3486 40.1041 45.6071 39.8458L72.8309 12.6221C73.0894 12.3636 73.5095 12.3636 73.7663 12.6221C74.0246 12.8804 74.0246 13.2992 73.7663 13.5575L46.5427 40.781C46.4136 40.9104 46.2446 40.9741 46.0759 40.9741Z" fill="black"/>
<path id="_321404352" fill-rule="evenodd" clip-rule="evenodd" d="M14.673 25.9747C12.7504 25.9747 11.1861 27.5392 11.1861 29.4616C11.1861 31.384 12.7504 32.9483 14.6728 32.9483C16.5956 32.9483 18.1595 31.3842 18.1595 29.4616C18.1599 27.539 16.5954 25.9749 14.673 25.9747ZM14.673 34.2713C12.0199 34.2713 9.86304 32.1129 9.86304 29.4616C9.86324 26.8085 12.0199 24.6519 14.6728 24.6519C17.3242 24.6519 19.4825 26.8087 19.4825 29.4616C19.4827 32.1127 17.324 34.2713 14.673 34.2713Z" fill="black"/>
<path id="_321403344" fill-rule="evenodd" clip-rule="evenodd" d="M65.7404 61.9202C63.8178 61.9202 62.2535 63.4843 62.2535 65.4069C62.2535 67.3295 63.8176 68.8936 65.7402 68.8936C67.6627 68.8936 69.2268 67.3295 69.2268 65.4069C69.2272 63.4843 67.6627 61.9202 65.7404 61.9202ZM65.7404 70.2167C63.0875 70.2167 60.9304 68.0582 60.9304 65.4069C60.9304 62.7539 63.0871 60.5972 65.7402 60.5972C68.3934 60.597 70.5499 62.7541 70.5499 65.4069C70.5501 68.058 68.393 70.2167 65.7404 70.2167Z" fill="black"/>
<path id="_321403272" fill-rule="evenodd" clip-rule="evenodd" d="M20.9262 61.9202C19.0036 61.9202 17.4395 63.4843 17.4395 65.4069C17.4397 67.3295 19.0036 68.8936 20.9262 68.8936C22.8508 68.8936 24.4147 67.3295 24.4147 65.4069C24.4147 63.4843 22.8504 61.9202 20.9262 61.9202ZM20.9262 70.2167C18.2749 70.2167 16.1165 68.0582 16.1165 65.4069C16.1165 62.7539 18.2749 60.5972 20.9262 60.5972C23.5794 60.597 25.7377 62.7541 25.7377 65.4069C25.7379 68.058 23.5791 70.2167 20.9262 70.2167Z" fill="black"/>
<g id="Group">
<path id="_321403848" fill-rule="evenodd" clip-rule="evenodd" d="M16.452 24.9929C22.363 16.1835 32.0995 10.8702 42.7114 10.6582L42.7116 1.32812C20.2327 1.67888 2.01288 19.8815 1.66113 42.3385H10.991C11.0503 39.3881 11.5064 36.4779 12.3497 33.6721C10.868 32.8515 9.86293 31.2714 9.86293 29.4615C9.86312 26.8084 12.0198 24.6517 14.6727 24.6517C15.3008 24.6517 15.9015 24.7727 16.452 24.9929Z" fill="#C5E1A5"/>
<path id="_321403632" fill-rule="evenodd" clip-rule="evenodd" d="M17.3194 62.228C13.3026 56.8096 11.1245 50.4148 10.991 43.6616H1.66113C2.01268 66.1183 20.2149 84.3206 42.6715 84.6718L42.6717 75.3421C35.9183 75.2086 29.5245 73.0303 24.1045 69.0147C23.2562 69.7625 22.143 70.2168 20.9261 70.2168C18.2748 70.2168 16.1163 68.0583 16.1163 65.407C16.1163 64.1893 16.5711 63.0762 17.3194 62.228Z" fill="#C5E1A5"/>
<path id="_321403368" fill-rule="evenodd" clip-rule="evenodd" d="M62.5625 69.0143C57.1439 73.0301 50.75 75.2086 43.9949 75.3421L43.9951 84.6718C66.4519 84.3204 84.6539 66.1183 85.0052 43.6616H75.6754C75.5421 50.4148 73.3636 56.8087 69.348 62.2286C70.0959 63.0766 70.55 64.1897 70.55 65.407C70.5502 68.0581 68.3931 70.2168 65.7403 70.2168C64.5232 70.2168 63.4104 69.7625 62.5625 69.0143Z" fill="#C5E1A5"/>
<path id="_321403320" fill-rule="evenodd" clip-rule="evenodd" d="M43.9949 74.0189C50.431 73.8862 56.5253 71.8178 61.6967 68.0089C61.2121 67.2584 60.9305 66.3649 60.9305 65.407C60.9305 62.754 63.0872 60.5973 65.7403 60.5973C66.6985 60.5973 67.592 60.8786 68.3425 61.3631C72.1512 56.1899 74.2194 50.0958 74.3521 43.6616H65.0223C64.6779 55.1011 55.4344 64.3431 43.9949 64.6873V74.0189Z" fill="#C5E1A5"/>
<path id="_321403584" fill-rule="evenodd" clip-rule="evenodd" d="M42.6719 74.0189V64.6873C31.2326 64.3431 21.9903 55.1011 21.6461 43.6616H12.3145C12.4474 50.0974 14.5156 56.1905 18.3244 61.3635C19.075 60.8788 19.9685 60.5973 20.9263 60.5973C23.5796 60.5971 25.7378 62.7542 25.7378 65.407C25.7378 66.365 25.4559 67.2588 24.9709 68.0097C30.1437 71.8182 36.2378 73.8862 42.6719 74.0189Z" fill="#C5E1A5"/>
<path id="_321403488" fill-rule="evenodd" clip-rule="evenodd" d="M22.9697 43.6616C23.3131 54.3724 31.9627 63.0204 42.6719 63.3636L42.6721 54.0262C37.1065 53.6961 32.6372 49.2272 32.3069 43.6616H22.9697Z" fill="#C5E1A5"/>
<path id="_321403248" fill-rule="evenodd" clip-rule="evenodd" d="M43.9946 54.0262L43.9948 63.3636C54.7058 63.0202 63.3554 54.3722 63.6986 43.6616H54.3612C54.0309 49.2272 49.5604 53.6961 43.9946 54.0262Z" fill="#C5E1A5"/>
<path id="_321403008" fill-rule="evenodd" clip-rule="evenodd" d="M32.3071 42.3387C32.6384 36.7721 37.1242 32.3028 42.7114 31.9739L42.7116 22.6367C31.9804 22.9791 23.3137 31.6275 22.9697 42.3387H32.3071Z" fill="#C5E1A5"/>
<path id="_321402696" fill-rule="evenodd" clip-rule="evenodd" d="M28.003 27.6441C31.9474 23.7098 37.149 21.4767 42.7116 21.3127V11.9814C32.5751 12.1927 23.2735 17.257 17.6057 25.6516C18.7464 26.5319 19.4826 27.9121 19.4826 29.4615C19.4828 32.1126 17.3242 34.2712 14.6731 34.2712C14.3001 34.2712 13.9371 34.2286 13.5883 34.1478C12.8011 36.8015 12.373 39.5512 12.3145 42.3385H21.6459C21.8107 36.7781 24.0525 31.5831 28.003 27.6441Z" fill="#C5E1A5"/>
<path id="_321403032" fill-rule="evenodd" clip-rule="evenodd" d="M59.1641 28.1596C62.8019 32.035 64.8644 37.0241 65.0225 42.3381H74.3521C74.1902 34.5321 71.1604 27.2018 65.7627 21.561L59.1641 28.1596Z" fill="#C5E1A5"/>
</g>
<path id="_321402888" fill-rule="evenodd" clip-rule="evenodd" d="M57.7695 27.6834L65.2952 20.1577L65.3009 20.1518L65.3057 20.1472L72.3441 13.1087C64.991 5.96992 55.0226 1.51093 44.0344 1.32861V11.3127V21.964V32.6155L44.0346 38.5545C44.7806 38.6716 45.4664 38.9723 46.0439 39.409L50.2289 35.2239L50.2378 35.215L50.2432 35.2097L57.7695 27.6834Z" fill="#FFF176"/>
<path id="_321402720" fill-rule="evenodd" clip-rule="evenodd" d="M66.6982 20.6262C72.3452 26.5169 75.5129 34.1803 75.6755 42.3386H85.0054C84.8336 31.364 80.3948 21.4027 73.2788 14.0454L66.6982 20.6262Z" fill="#C5E1A5"/>
<path id="_321402816" fill-rule="evenodd" clip-rule="evenodd" d="M53.036 42.3383C52.8948 40.2229 52.0766 38.2378 50.6867 36.6372L46.9717 40.3522C47.3911 40.9266 47.6777 41.6039 47.7863 42.3383H53.036Z" fill="#C5E1A5"/>
<path id="_321402552" fill-rule="evenodd" clip-rule="evenodd" d="M51.6248 35.6992C53.2617 37.5527 54.2165 39.8697 54.3615 42.3387H63.6989C63.5416 37.3783 61.6174 32.721 58.2279 29.0962L51.6248 35.6992Z" fill="#C5E1A5"/>
<path id="_321401832" fill-rule="evenodd" clip-rule="evenodd" d="M38.8819 42.3386C39.1728 40.372 40.7402 38.817 42.7112 38.5435V33.2979C37.8547 33.6228 33.9605 37.5025 33.6326 42.3386H38.8819Z" fill="#C5E1A5"/>
<path id="_321402336" fill-rule="evenodd" clip-rule="evenodd" d="M38.8819 43.6616H33.6326C33.9593 48.4968 37.8368 52.3761 42.672 52.7024V47.4512C40.7194 47.1622 39.171 45.614 38.8819 43.6616Z" fill="#C5E1A5"/>
<path id="_321402264" fill-rule="evenodd" clip-rule="evenodd" d="M47.786 43.6616C47.497 45.614 45.9484 47.1624 43.9946 47.4512V52.7024C48.8315 52.3759 52.7091 48.4968 53.0354 43.6616H47.786Z" fill="#C5E1A5"/>
<path id="_321401904" fill-rule="evenodd" clip-rule="evenodd" d="M14.6727 32.9482C16.5955 32.9482 18.1594 31.3841 18.1594 29.4615C18.1598 27.5389 16.5953 25.9748 14.6729 25.9746C12.7503 25.9746 11.186 27.5389 11.186 29.4615C11.186 31.3839 12.7503 32.9482 14.6727 32.9482Z" fill="#E95D5B"/>
<path id="_321402168" fill-rule="evenodd" clip-rule="evenodd" d="M43.3333 39.8232C41.5814 39.8232 40.1567 41.2479 40.1567 42.9998C40.1575 44.7514 41.5816 46.1764 43.3333 46.1764C45.0708 46.1764 46.4877 44.7756 46.5113 43.0439C46.5103 43.0292 46.5099 43.0145 46.5099 42.9998C46.5099 42.9852 46.5103 42.9707 46.5113 42.9562C46.4881 41.2374 45.0921 39.8445 43.373 39.8234C43.3597 39.8232 43.3466 39.8232 43.3333 39.8232Z" fill="#E95D5B"/>
<path id="_321402384" fill-rule="evenodd" clip-rule="evenodd" d="M24.4148 65.4071C24.4148 63.4845 22.8505 61.9204 20.9263 61.9204C19.0037 61.9204 17.4395 63.4847 17.4395 65.4071C17.4398 67.3295 19.0037 68.8938 20.9263 68.8938C22.8509 68.8938 24.4148 67.3297 24.4148 65.4071Z" fill="#E95D5B"/>
<path id="_321401928" fill-rule="evenodd" clip-rule="evenodd" d="M62.2537 65.4071C62.2537 67.3295 63.8178 68.8938 65.7404 68.8938C67.6629 68.8938 69.227 67.3297 69.227 65.4071C69.2274 63.4845 67.6629 61.9204 65.7404 61.9204C63.818 61.9204 62.2537 63.4847 62.2537 65.4071Z" fill="#E95D5B"/>
</g>
</g>
</g>
<defs>
<clipPath id="clip0_44_3297">
<rect width="86" height="86" fill="white" transform="translate(0.333252)"/>
</clipPath>
</defs>
</svg>
