<svg width="65" height="28" viewBox="0 0 65 28" fill="none" xmlns="http://www.w3.org/2000/svg">
<g id="Group 1">
<path id="Vector" fill-rule="evenodd" clip-rule="evenodd" d="M0 7.85632C4.21424 -0.583655 11.3035 -1.68467 19.2119 2.00278C21.5083 3.0736 23.8417 3.9594 26.2311 5.06137C27.6509 5.71613 26.8073 6.81138 24.6911 6.64553C22.6228 6.48304 20.9154 5.52007 18.9612 5.19077C17.3334 4.9166 17.0659 5.61739 17.7159 6.20553C18.5183 6.93171 19.5139 7.48675 20.5765 7.83378C21.7111 8.20478 22.9406 8.47703 24.031 9.26409C25.1028 10.0368 25.9742 10.3239 27.0201 10.2745C28.2362 10.2175 29.2686 10.9614 30.3461 11.2001C31.9322 11.5519 33.5183 11.1301 34.9089 10.5156C36.1824 9.9529 37.362 9.49561 38.627 9.3475C39.368 9.26074 39.8891 8.73204 40.5735 8.21821C42.847 6.51276 45.1099 5.85274 46.3159 7.75135C36.0473 16.0768 25.9474 18.8626 16.5401 13.1581C11.0959 9.85702 5.84874 6.82817 0 7.85536V7.85632ZM43.2395 6.25393C42.0038 4.59737 39.3987 5.80672 36.7432 7.66171C36.3535 7.93397 35.9806 7.93446 35.4836 8.08592C34.4324 8.40707 31.8699 8.95732 32.5534 9.5977C33.7863 9.50183 35.0282 9.27225 36.3085 9.01197C37.6012 8.7493 38.8921 8.39892 40.1402 7.69958C41.1406 7.13877 42.1443 6.63977 43.2395 6.2544V6.25393Z" fill="#34B090"/>
<path id="Vector_2" fill-rule="evenodd" clip-rule="evenodd" d="M64.9995 17.6236C60.3386 9.42183 53.2004 8.70282 45.5015 12.8092C43.2659 14.0018 40.9834 15.0117 38.6562 16.2402C37.2739 16.9702 38.175 18.019 40.2792 17.7396C42.336 17.4668 43.9892 16.4133 45.9228 15.9795C47.5334 15.6185 47.8382 16.3035 47.2208 16.9257C46.4582 17.6936 45.4943 18.3013 44.4518 18.7054C43.3388 19.1363 42.1256 19.4747 41.0788 20.3188C40.0501 21.1481 39.1955 21.4812 38.1481 21.4884C36.9307 21.4965 35.9399 22.2951 34.8763 22.5913C33.3113 23.0275 31.705 22.6915 30.2834 22.1527C28.9815 21.659 27.7789 21.266 26.5082 21.1859C25.7638 21.139 25.215 20.639 24.5041 20.1631C22.1425 18.5822 19.8475 18.0444 18.745 20.0049C29.4455 27.7671 39.6801 30.007 48.7681 23.8064C54.0273 20.2177 59.1043 16.9118 65 17.6236H64.9995ZM21.736 18.344C22.8811 16.6237 25.5476 17.6911 28.299 19.4009C28.7025 19.6521 29.075 19.6319 29.5792 19.7571C30.6457 20.0216 33.2346 20.4329 32.5861 21.1092C31.3494 21.08 30.0974 20.917 28.8046 20.7258C27.4999 20.5326 26.1918 20.2522 24.9082 19.6204C23.8791 19.1143 22.8505 18.6699 21.7355 18.344H21.736Z" fill="#34B090"/>
</g>
</svg>
