<svg width="87" height="64" viewBox="0 0 87 64" fill="none" xmlns="http://www.w3.org/2000/svg">
<path fill-rule="evenodd" clip-rule="evenodd" d="M39.4558 0.202423C51.2781 0.202423 60.862 9.78633 60.862 21.6087C60.862 25.3083 59.9235 28.7888 58.2715 31.8247C55.8776 30.4146 53.1106 30.3388 50.169 31.3219C52.4977 28.7549 53.9169 25.3477 53.9169 21.6087C53.9169 13.6223 47.4425 7.1479 39.4561 7.1479C31.4697 7.1479 24.9954 13.6223 24.9954 21.6087C24.9954 22.4054 25.0609 23.1866 25.1847 23.9484C22.656 22.9365 20.2555 22.5984 18.1015 23.0809C18.0683 22.5944 18.0503 22.1037 18.0503 21.6087C18.0503 9.7867 27.6342 0.202423 39.4565 0.202423H39.4558Z" fill="white"/>
<path fill-rule="evenodd" clip-rule="evenodd" d="M11.4698 29.892C14.7083 23.4062 20.1561 22.5601 26.2334 25.3937C27.9981 26.2166 29.7912 26.8973 31.6274 27.7441C32.7184 28.2473 32.0701 29.089 30.4439 28.9615C28.8545 28.8366 27.5425 28.0966 26.0407 27.8436C24.7898 27.6329 24.5843 28.1714 25.0838 28.6234C25.7004 29.1814 26.4654 29.608 27.282 29.8746C28.1539 30.1597 29.0987 30.3689 29.9367 30.9738C30.7603 31.5675 31.43 31.7882 32.2337 31.7502C33.1682 31.7064 33.9616 32.2781 34.7896 32.4615C36.0084 32.7319 37.2273 32.4077 38.2959 31.9355C39.2745 31.5031 40.181 31.1517 41.1531 31.0379C41.7226 30.9712 42.1229 30.5649 42.6489 30.17C44.396 28.8595 46.1349 28.3523 47.0617 29.8113C39.1707 36.209 31.4093 38.3498 24.1802 33.9662C19.9966 31.4294 15.9643 29.1019 11.4698 29.8912V29.892ZM44.6977 28.6606C43.7481 27.3876 41.7461 28.3169 39.7055 29.7424C39.406 29.9516 39.1195 29.952 38.7375 30.0684C37.9297 30.3152 35.9606 30.738 36.4858 31.2301C37.4332 31.1565 38.3876 30.98 39.3714 30.78C40.3648 30.5782 41.3568 30.3089 42.316 29.7715C43.0847 29.3405 43.856 28.9571 44.6977 28.6609V28.6606Z" fill="white"/>
<path fill-rule="evenodd" clip-rule="evenodd" d="M61.4193 37.3977C57.8375 31.095 52.3522 30.5424 46.4359 33.698C44.7179 34.6145 42.9639 35.3906 41.1756 36.3346C40.1133 36.8956 40.8057 37.7016 42.4228 37.4868C44.0033 37.2772 45.2737 36.4676 46.7596 36.1343C47.9973 35.8569 48.2315 36.3833 47.7571 36.8614C47.1711 37.4515 46.4303 37.9185 45.6292 38.229C44.7739 38.5602 43.8416 38.8202 43.0372 39.4689C42.2467 40.1061 41.5899 40.3621 40.7851 40.3676C39.8495 40.3739 39.0882 40.9875 38.2708 41.2152C37.0682 41.5504 35.8339 41.2922 34.7414 40.8782C33.7409 40.4988 32.8168 40.1967 31.8403 40.1352C31.2682 40.0991 30.8465 39.7149 30.3002 39.3492C28.4854 38.1344 26.7218 37.7211 25.8746 39.2276C34.0975 45.1926 41.9623 46.9138 48.9461 42.1489C52.9876 39.3912 56.8891 36.8507 61.4197 37.3977H61.4193ZM28.1731 37.9513C29.053 36.6293 31.1021 37.4496 33.2164 38.7635C33.5266 38.9565 33.8128 38.941 34.2003 39.0372C35.0198 39.2405 37.0092 39.5565 36.5109 40.0763C35.5605 40.0538 34.5984 39.9286 33.605 39.7816C32.6024 39.6332 31.5972 39.4177 30.6108 38.9322C29.8199 38.5432 29.0295 38.2018 28.1727 37.9513H28.1731Z" fill="white"/>
<path fill-rule="evenodd" clip-rule="evenodd" d="M40.2234 15.4665C32.6816 13.0359 33.559 22.1564 39.216 25.8531C28.8055 20.827 33.6669 10.393 40.2234 15.4665Z" fill="white"/>
<path fill-rule="evenodd" clip-rule="evenodd" d="M39.9704 26.0715C45.5165 25.084 49.657 15.0492 44.7419 13.6101C39.8267 12.171 37.9238 20.5309 40.0392 24.3215C37.9688 9.02608 52.8955 15.8334 39.9704 26.0715Z" fill="white"/>
<path d="M40.0035 14.3162C40.8217 14.3162 41.485 13.6529 41.485 12.8347C41.485 12.0165 40.8217 11.3532 40.0035 11.3532C39.1853 11.3532 38.522 12.0165 38.522 12.8347C38.522 13.6529 39.1853 14.3162 40.0035 14.3162Z" fill="white"/>
<path d="M4.51994 56.9939C3.88491 56.9939 3.29409 56.8819 2.74857 56.658C2.20306 56.434 1.72458 56.1206 1.31314 55.7172C0.901702 55.3143 0.580138 54.8457 0.348082 54.3124C0.116026 53.779 0 53.2026 0 52.5838C0 51.9649 0.116026 51.3888 0.348082 50.8551C0.580138 50.3217 0.90207 49.8536 1.31314 49.4503C1.72458 49.0473 2.20269 48.7335 2.74857 48.5095C3.29409 48.2855 3.88454 48.1736 4.51994 48.1736C5.15496 48.1736 5.74762 48.2855 6.29719 48.5095C6.84713 48.7335 7.32744 49.0469 7.73851 49.4503C8.14995 49.8532 8.4693 50.3217 8.69768 50.8551C8.92568 51.3885 9.0395 51.9646 9.0395 52.5838C9.0395 53.2026 8.92568 53.7786 8.69768 54.3124C8.46967 54.8457 8.14995 55.3139 7.73851 55.7172C7.32708 56.1202 6.84676 56.434 6.29719 56.658C5.74762 56.8819 5.15496 56.9939 4.51994 56.9939ZM4.51994 55.3691C4.91075 55.3691 5.26914 55.298 5.59513 55.1555C5.92074 55.013 6.20584 54.8177 6.45005 54.5691C6.69426 54.3208 6.8858 54.0254 7.0243 53.6836C7.16279 53.3414 7.23204 52.9749 7.23204 52.5841C7.23204 52.1852 7.16279 51.8168 7.0243 51.4787C6.8858 51.1409 6.69463 50.8477 6.45005 50.5991C6.20584 50.3508 5.92074 50.1553 5.59513 50.0127C5.26914 49.8702 4.91112 49.7991 4.51994 49.7991C4.13723 49.7991 3.78288 49.8702 3.45726 50.0127C3.13165 50.1553 2.84655 50.3505 2.60234 50.5991C2.35813 50.8474 2.16659 51.1406 2.0281 51.4787C1.8896 51.8168 1.82035 52.1811 1.82035 52.572C1.82035 52.9709 1.8896 53.3414 2.0281 53.6836C2.16659 54.0254 2.35776 54.3208 2.60234 54.5691C2.84655 54.8174 3.13165 55.013 3.45726 55.1555C3.78325 55.298 4.13723 55.3691 4.51994 55.3691Z" fill="white"/>
<path d="M10.2613 56.8594V48.3084H12.0327V52.1318L15.7706 48.3084H17.9328L13.7793 52.376L18.1284 56.8594H15.7584L12.0327 52.8891V56.8594H10.2613Z" fill="white"/>
<path d="M18.4823 56.8594V48.3084H25.0547V49.8477H20.2537V51.8021H23.4174V53.2924H20.2537V55.3201H25.1033V56.8594H18.4823Z" fill="white"/>
<path d="M26.3615 56.8594V48.3084H28.1329V51.7531H32.0661V48.3084H33.8374V56.8594H32.0661V53.3536H28.1329V56.8594H26.3615Z" fill="white"/>
<path d="M35.3889 56.8594V48.3084H41.9609V49.8477H37.1602V51.8021H40.3239V53.2924H37.1602V55.3201H42.0098V56.8594H35.3889Z" fill="white"/>
<path d="M43.2678 56.8594V48.3084H47.2867C47.865 48.3084 48.3697 48.406 48.8014 48.6016C49.2331 48.7972 49.5708 49.0719 49.8151 49.4263C50.0593 49.7806 50.1816 50.1899 50.1816 50.654C50.1816 51.0286 50.0862 51.3726 49.8946 51.6861C49.7031 51.9995 49.4445 52.2541 49.1189 52.4496C49.5344 52.6452 49.864 52.9097 50.1083 53.2438C50.3525 53.5779 50.4748 53.9566 50.4748 54.3798C50.4748 54.8686 50.3506 55.2999 50.1024 55.6745C49.8541 56.0491 49.5038 56.3401 49.0518 56.5478C48.5999 56.7556 48.0765 56.8594 47.482 56.8594H43.2678ZM45.0391 51.8021H47.177C47.5597 51.8021 47.8632 51.7108 48.0872 51.5273C48.3111 51.3439 48.4231 51.0978 48.4231 50.7884C48.4231 50.479 48.3111 50.2326 48.0872 50.0492C47.8632 49.8661 47.5601 49.7744 47.177 49.7744H45.0391V51.8021ZM45.0391 55.3934H47.3479C47.7553 55.3934 48.0809 55.2936 48.3251 55.094C48.5693 54.8943 48.6916 54.6277 48.6916 54.294C48.6916 53.9521 48.5693 53.6814 48.3251 53.4818C48.0809 53.2821 47.7549 53.1823 47.3479 53.1823H45.0391V55.3934Z" fill="white"/>
<path d="M55.3612 56.9814C54.5877 56.9814 53.9176 56.8267 53.3519 56.5172C52.7857 56.2078 52.3481 55.7662 52.0387 55.192C51.7293 54.6177 51.5746 53.944 51.5746 53.1701V48.3084H53.346V53.1701C53.346 53.6099 53.4296 53.9949 53.5965 54.3245C53.7637 54.6542 53.9994 54.9069 54.3051 55.0818C54.6105 55.2568 54.9667 55.3444 55.3741 55.3444C55.7815 55.3444 56.1354 55.2568 56.4367 55.0818C56.738 54.9065 56.9723 54.6542 57.1392 54.3245C57.306 53.9949 57.3896 53.6099 57.3896 53.1701V48.3084H59.1489V53.1701C59.1489 53.9356 58.9941 54.6052 58.6847 55.1798C58.3753 55.7541 57.9374 56.1976 57.3716 56.5114C56.8055 56.8248 56.1358 56.9817 55.3619 56.9817L55.3612 56.9814Z" fill="white"/>
<path d="M60.5651 56.8594V48.3084H62.251L66.5021 53.8298V48.3084H68.1633V56.8594H66.5997L62.2389 51.1424V56.8594H60.5651Z" fill="white"/>
<path d="M73.9047 56.9939C73.2697 56.9939 72.6788 56.8819 72.1333 56.658C71.5878 56.434 71.1093 56.1206 70.6979 55.7172C70.2864 55.3143 69.9649 54.8457 69.7328 54.3124C69.5008 53.779 69.3847 53.2026 69.3847 52.5838C69.3847 51.9649 69.5008 51.3888 69.7328 50.8551C69.9649 50.3217 70.2868 49.8536 70.6979 49.4503C71.1093 49.0473 71.5874 48.7335 72.1333 48.5095C72.6788 48.2855 73.2693 48.1736 73.9047 48.1736C74.5397 48.1736 75.1324 48.2855 75.6819 48.5095C76.2319 48.7335 76.7122 49.0469 77.1233 49.4503C77.5347 49.8532 77.854 50.3217 78.0824 50.8551C78.3104 51.3885 78.4242 51.9646 78.4242 52.5838C78.4242 53.2026 78.3104 53.7786 78.0824 54.3124C77.8544 54.8457 77.5347 55.3139 77.1233 55.7172C76.7118 56.1202 76.2315 56.434 75.6819 56.658C75.1324 56.8819 74.5397 56.9939 73.9047 56.9939ZM73.9047 55.3691C74.2955 55.3691 74.6539 55.298 74.9799 55.1555C75.3055 55.013 75.5906 54.8177 75.8348 54.5691C76.079 54.3208 76.2705 54.0254 76.409 53.6836C76.5475 53.3414 76.6168 52.9749 76.6168 52.5841C76.6168 52.1852 76.5475 51.8168 76.409 51.4787C76.2705 51.1409 76.0794 50.8477 75.8348 50.5991C75.5906 50.3508 75.3055 50.1553 74.9799 50.0127C74.6539 49.8702 74.2959 49.7991 73.9047 49.7991C73.522 49.7991 73.1676 49.8702 72.842 50.0127C72.5164 50.1553 72.2313 50.3505 71.9871 50.5991C71.7429 50.8474 71.5513 51.1406 71.4128 51.4787C71.2743 51.8168 71.2051 52.1811 71.2051 52.572C71.2051 52.9709 71.2743 53.3414 71.4128 53.6836C71.5513 54.0254 71.7425 54.3208 71.9871 54.5691C72.2313 54.8174 72.5164 55.013 72.842 55.1555C73.168 55.298 73.522 55.3691 73.9047 55.3691Z" fill="white"/>
<path d="M79.646 56.8594V48.3084H83.8238C84.4021 48.3084 84.913 48.4203 85.3568 48.6443C85.8007 48.8682 86.1466 49.1799 86.3952 49.5788C86.6435 49.9777 86.7676 50.4381 86.7676 50.9593C86.7676 51.5048 86.6169 51.9855 86.3156 52.4007C86.0143 52.8161 85.611 53.1256 85.1064 53.3289L87 56.8591H85.0213L83.3475 53.5853H81.4174V56.8591H79.646V56.8594ZM81.4174 52.1321H83.665C84.064 52.1321 84.3837 52.0264 84.6238 51.8146C84.864 51.6028 84.9841 51.3258 84.9841 50.9836C84.9841 50.6418 84.864 50.3648 84.6238 50.153C84.3837 49.9412 84.064 49.8355 83.665 49.8355H81.4174V52.1321Z" fill="white"/>
<path d="M1.26967 63.7305V59.4552H4.32986V59.8706H1.74004V61.3974H3.4381V61.8066H1.74004V63.7305H1.26967Z" fill="white"/>
<path d="M11.8647 63.7975C11.5553 63.7975 11.2672 63.7416 11.0006 63.6296C10.7339 63.5176 10.4996 63.3607 10.2981 63.1592C10.0966 62.9577 9.9401 62.7234 9.82776 62.4568C9.71578 62.1901 9.65979 61.902 9.65979 61.5926C9.65979 61.2832 9.71578 60.9952 9.82776 60.7285C9.93973 60.4618 10.0966 60.2279 10.2981 60.0261C10.4996 59.8246 10.7339 59.6677 11.0006 59.5557C11.2672 59.4437 11.5553 59.3878 11.8647 59.3878C12.17 59.3878 12.4562 59.4437 12.7229 59.5557C12.9896 59.6677 13.2235 59.8246 13.4254 60.0261C13.6268 60.2276 13.7838 60.4618 13.8957 60.7285C14.0077 60.9952 14.0637 61.2832 14.0637 61.5926C14.0637 61.902 14.0077 62.1901 13.8957 62.4568C13.7838 62.7234 13.6268 62.9574 13.4254 63.1592C13.2239 63.3607 12.9896 63.5176 12.7229 63.6296C12.4562 63.7416 12.17 63.7975 11.8647 63.7975ZM11.8647 63.364C12.1089 63.364 12.3351 63.3191 12.5428 63.2296C12.7506 63.1401 12.9329 63.0148 13.0894 62.8538C13.2463 62.6929 13.3683 62.5047 13.4559 62.2888C13.5436 62.073 13.5871 61.8409 13.5871 61.5926C13.5871 61.3403 13.5432 61.1072 13.4559 60.8935C13.3683 60.6799 13.2463 60.4924 13.0894 60.3315C12.9325 60.1705 12.7506 60.0452 12.5428 59.9557C12.3351 59.8662 12.1093 59.8213 11.8647 59.8213C11.6205 59.8213 11.3932 59.8662 11.1836 59.9557C10.974 60.0452 10.7906 60.1705 10.6341 60.3315C10.4771 60.4924 10.3552 60.6795 10.2676 60.8935C10.1799 61.1072 10.1361 61.3381 10.1361 61.5868C10.1361 61.8391 10.1799 62.0733 10.2676 62.2892C10.3549 62.505 10.4771 62.6932 10.6341 62.8542C10.791 63.0152 10.974 63.1404 11.1836 63.2299C11.3932 63.3194 11.6205 63.3644 11.8647 63.3644V63.364Z" fill="white"/>
<path d="M21.6412 63.7976C21.2788 63.7976 20.9653 63.7213 20.7005 63.5685C20.4357 63.4156 20.2323 63.199 20.0898 62.918C19.9472 62.6369 19.8761 62.3054 19.8761 61.9223V59.4548H20.3465V61.9223C20.3465 62.2155 20.3996 62.4701 20.5053 62.6859C20.611 62.9018 20.7616 63.0686 20.9572 63.1868C21.1528 63.3047 21.3808 63.364 21.6412 63.364C21.9061 63.364 22.1352 63.3051 22.3282 63.1868C22.5216 63.0686 22.6711 62.9018 22.7772 62.6859C22.8829 62.4701 22.936 62.2155 22.936 61.9223V59.4548H23.4063V61.9223C23.4063 62.305 23.3341 62.6369 23.1894 62.918C23.0446 63.199 22.8413 63.416 22.5787 63.5685C22.316 63.7213 22.0037 63.7976 21.6412 63.7976Z" fill="white"/>
<path d="M29.4207 63.7305V59.4552H29.8907L32.4621 62.9242V59.4552H32.9081V63.7305H32.4926L29.8664 60.1697V63.7305H29.4207Z" fill="white"/>
<path d="M39.4779 63.3029H40.4429C40.6912 63.3029 40.9214 63.2601 41.1332 63.1747C41.345 63.0892 41.5303 62.9692 41.689 62.8144C41.8478 62.6597 41.9712 62.4785 42.0585 62.2707C42.1462 62.063 42.19 61.8372 42.19 61.5926C42.19 61.3484 42.1462 61.1223 42.0585 60.9145C41.9712 60.7068 41.8478 60.5255 41.689 60.3708C41.5303 60.2161 41.345 60.0961 41.1332 60.0106C40.9214 59.9252 40.6912 59.8824 40.4429 59.8824H39.4779V63.3029ZM39.0075 63.7305V59.4552H40.4183C40.7439 59.4552 41.0433 59.5082 41.3159 59.6139C41.5889 59.7196 41.8261 59.8684 42.0276 60.06C42.229 60.2511 42.386 60.4773 42.4979 60.7381C42.6099 60.9985 42.6659 61.2836 42.6659 61.593C42.6659 61.9024 42.611 62.1875 42.5009 62.4479C42.3911 62.7084 42.2353 62.9345 42.0335 63.1261C41.832 63.3176 41.5936 63.466 41.3189 63.5721C41.0441 63.6778 40.7439 63.7309 40.4179 63.7309H39.0071L39.0075 63.7305Z" fill="white"/>
<path d="M47.9048 63.7305L49.6762 59.4552H50.2442L52.0034 63.7305H51.4903L50.9529 62.3868H48.9373L48.3936 63.7305H47.9048ZM49.1019 61.9838H50.7879L49.9451 59.8887L49.1019 61.9838Z" fill="white"/>
<path d="M58.0722 63.7305V59.8765H56.527V59.4552H60.0878V59.8765H58.5426V63.7305H58.0722Z" fill="white"/>
<path d="M65.821 63.7305V59.4552H66.2914V63.7305H65.821Z" fill="white"/>
<path d="M74.3942 63.7975C74.0848 63.7975 73.7967 63.7416 73.5301 63.6296C73.2634 63.5176 73.0291 63.3607 72.8276 63.1592C72.6261 62.9577 72.4696 62.7234 72.3573 62.4568C72.2453 62.1901 72.1893 61.902 72.1893 61.5926C72.1893 61.2832 72.2453 60.9952 72.3573 60.7285C72.4692 60.4618 72.6261 60.2279 72.8276 60.0261C73.0291 59.8246 73.2634 59.6677 73.5301 59.5557C73.7967 59.4437 74.0848 59.3878 74.3942 59.3878C74.6996 59.3878 74.9858 59.4437 75.2524 59.5557C75.5191 59.6677 75.753 59.8246 75.9549 60.0261C76.1564 60.2276 76.3133 60.4618 76.4252 60.7285C76.5372 60.9952 76.5932 61.2832 76.5932 61.5926C76.5932 61.902 76.5372 62.1901 76.4252 62.4568C76.3133 62.7234 76.1564 62.9574 75.9549 63.1592C75.7534 63.3607 75.5191 63.5176 75.2524 63.6296C74.9858 63.7416 74.6996 63.7975 74.3942 63.7975ZM74.3942 63.364C74.6384 63.364 74.8646 63.3191 75.0723 63.2296C75.2801 63.1401 75.4624 63.0148 75.6189 62.8538C75.7758 62.6929 75.8978 62.5047 75.9854 62.2888C76.0731 62.073 76.1166 61.8409 76.1166 61.5926C76.1166 61.3403 76.0727 61.1072 75.9854 60.8935C75.8978 60.6799 75.7758 60.4924 75.6189 60.3315C75.462 60.1705 75.2801 60.0452 75.0723 59.9557C74.8646 59.8662 74.6388 59.8213 74.3942 59.8213C74.15 59.8213 73.9227 59.8662 73.7131 59.9557C73.5035 60.0452 73.3201 60.1705 73.1636 60.3315C73.0067 60.4924 72.8847 60.6795 72.7971 60.8935C72.7094 61.1072 72.6656 61.3381 72.6656 61.5868C72.6656 61.8391 72.7094 62.0733 72.7971 62.2892C72.8844 62.505 73.0067 62.6932 73.1636 62.8542C73.3205 63.0152 73.5035 63.1404 73.7131 63.2299C73.9227 63.3194 74.15 63.3644 74.3942 63.3644V63.364Z" fill="white"/>
<path d="M82.4911 63.7305V59.4552H82.9615L85.5329 62.9242V59.4552H85.9786V63.7305H85.5635L82.9372 60.1697V63.7305H82.4911Z" fill="white"/>
</svg>
