<svg width="86" height="64" viewBox="0 0 86 64" fill="none" xmlns="http://www.w3.org/2000/svg">
<path fill-rule="evenodd" clip-rule="evenodd" d="M39.0026 0.567909C50.689 0.567909 60.1628 10.0417 60.1628 21.7281C60.1628 25.3852 59.235 28.8257 57.602 31.8267C55.2357 30.4325 52.5005 30.3579 49.5927 31.3297C51.8946 28.7922 53.2972 25.4242 53.2972 21.7281C53.2972 13.8335 46.8972 7.43355 39.0026 7.43355C31.108 7.43355 24.708 13.8335 24.708 21.7281C24.708 22.5157 24.7729 23.2879 24.8952 24.0409C22.3956 23.0407 20.0227 22.7065 17.8934 23.1835C17.8606 22.7025 17.8428 22.2175 17.8428 21.7281C17.8428 10.0417 27.3165 0.567909 39.003 0.567909H39.0026Z" fill="white"/>
<path fill-rule="evenodd" clip-rule="evenodd" d="M11.3379 29.9162C14.5391 23.5049 19.9243 22.6686 25.9317 25.47C27.6762 26.2835 29.4487 26.9563 31.2638 27.7934C32.3422 28.2908 31.7014 29.1228 30.0939 28.9968C28.5227 28.8734 27.2258 28.1419 25.7413 27.8917C24.5052 27.6835 24.3016 28.2158 24.7954 28.6625C25.4049 29.2142 26.1615 29.6358 26.9684 29.8994C27.8302 30.1809 28.7641 30.3881 29.5925 30.9856C30.4063 31.5729 31.0682 31.7906 31.8631 31.7535C32.7868 31.7101 33.5711 32.2752 34.3896 32.4566C35.5948 32.7235 36.7993 32.4034 37.8559 31.9366C38.8234 31.5092 39.7194 31.1618 40.6803 31.0493C41.2432 30.9834 41.639 30.5818 42.159 30.1914C43.886 28.8959 45.6049 28.3946 46.521 29.8368C38.7207 36.161 31.0486 38.2768 23.9026 33.9439C19.767 31.4363 15.7811 29.1352 11.3382 29.9158L11.3379 29.9162ZM44.1838 28.6993C43.2451 27.441 41.2662 28.3592 39.249 29.7687C38.953 29.9755 38.6694 29.9759 38.2921 30.0909C37.4936 30.3349 35.5471 30.7529 36.0663 31.2393C37.0028 31.1665 37.9462 30.9921 38.9188 30.7944C39.9008 30.5949 40.8813 30.3287 41.8295 29.7975C42.5893 29.3715 43.3518 28.9924 44.1838 28.6997V28.6993Z" fill="#FF4800"/>
<path fill-rule="evenodd" clip-rule="evenodd" d="M60.7132 37.3356C57.1726 31.1054 51.7503 30.5592 45.9016 33.6785C44.2034 34.5844 42.4695 35.3516 40.7017 36.2848C39.6517 36.839 40.3362 37.636 41.9346 37.4238C43.497 37.2162 44.7528 36.4159 46.2216 36.0867C47.445 35.8126 47.6766 36.3332 47.2076 36.8055C46.6283 37.3888 45.8961 37.8505 45.1042 38.1574C44.2591 38.4848 43.3375 38.7418 42.542 39.383C41.7606 40.0129 41.1114 40.266 40.3158 40.2714C39.3909 40.2776 38.6383 40.8839 37.8304 41.1093C36.6416 41.4406 35.4214 41.1854 34.3415 40.7761C33.3526 40.4011 32.439 40.1025 31.4738 40.0417C30.9079 40.006 30.4914 39.6263 29.9514 39.2647C28.1575 38.0639 26.4141 37.6553 25.5767 39.1445C33.705 45.0409 41.4795 46.7424 48.383 42.0323C52.3784 39.3062 56.235 36.7949 60.7132 37.336V37.3356ZM27.8491 37.8829C28.7189 36.5761 30.7445 37.387 32.8341 38.6858C33.1407 38.8762 33.4239 38.8613 33.8066 38.9563C34.6171 39.1573 36.5833 39.4697 36.091 39.9834C35.1516 39.9612 34.2006 39.8374 33.2186 39.6922C32.2275 39.5454 31.2338 39.3324 30.2587 38.8525C29.477 38.4677 28.6956 38.1305 27.8487 37.8829H27.8491Z" fill="#47A3E2"/>
<path fill-rule="evenodd" clip-rule="evenodd" d="M39.7613 15.6566C32.3062 13.2538 33.1735 22.2692 38.7655 25.9238C28.4747 20.9555 33.2802 10.6414 39.7613 15.6566Z" fill="#47A3E2"/>
<path fill-rule="evenodd" clip-rule="evenodd" d="M39.5113 26.1396C44.9936 25.1635 49.0866 15.244 44.2279 13.8215C39.3693 12.3989 37.4883 20.6627 39.5793 24.4098C37.5327 9.29014 52.2878 16.0192 39.5113 26.1396Z" fill="#FF4800"/>
<path d="M39.544 14.5195C40.3528 14.5195 41.0085 13.8638 41.0085 13.055C41.0085 12.2462 40.3528 11.5906 39.544 11.5906C38.7352 11.5906 38.0796 12.2462 38.0796 13.055C38.0796 13.8638 38.7352 14.5195 39.544 14.5195Z" fill="#2ECAA2"/>
<path d="M4.46798 56.7066C3.84026 56.7066 3.25623 56.5959 2.71699 56.3745C2.17774 56.1532 1.70475 55.8433 1.29804 55.4446C0.891335 55.0463 0.573479 54.5831 0.34409 54.0559C0.114701 53.5287 0 52.9588 0 52.3471C0 51.7354 0.114701 51.166 0.34409 50.6384C0.573479 50.1111 0.891699 49.6484 1.29804 49.2497C1.70475 48.8513 2.17738 48.5411 2.71699 48.3197C3.25623 48.0983 3.83989 47.9877 4.46798 47.9877C5.0957 47.9877 5.68156 48.0983 6.22481 48.3197C6.76842 48.5411 7.24321 48.851 7.64956 49.2497C8.05627 49.648 8.37195 50.1111 8.5977 50.6384C8.82308 51.1656 8.9356 51.7351 8.9356 52.3471C8.9356 52.9588 8.82308 53.5283 8.5977 54.0559C8.37232 54.5831 8.05627 55.0459 7.64956 55.4446C7.24285 55.8429 6.76806 56.1532 6.22481 56.3745C5.68156 56.5959 5.0957 56.7066 4.46798 56.7066ZM4.46798 55.1005C4.8543 55.1005 5.20858 55.0302 5.53081 54.8893C5.85268 54.7484 6.1345 54.5554 6.37591 54.3097C6.61731 54.0643 6.80666 53.7722 6.94357 53.4344C7.08047 53.0961 7.14891 52.7338 7.14891 52.3475C7.14891 51.9532 7.08047 51.5891 6.94357 51.2548C6.80666 50.9209 6.61768 50.6311 6.37591 50.3853C6.1345 50.1399 5.85268 49.9466 5.53081 49.8056C5.20858 49.6647 4.85466 49.5945 4.46798 49.5945C4.08967 49.5945 3.73939 49.6647 3.41752 49.8056C3.09565 49.9466 2.81383 50.1395 2.57243 50.3853C2.33102 50.6307 2.14169 50.9206 2.00479 51.2548C1.86788 51.5891 1.79942 51.9492 1.79942 52.3355C1.79942 52.7298 1.86788 53.0961 2.00479 53.4344C2.14169 53.7722 2.33066 54.0643 2.57243 54.3097C2.81383 54.5551 3.09565 54.7484 3.41752 54.8893C3.73976 55.0302 4.08967 55.1005 4.46798 55.1005Z" fill="#FF4800"/>
<path d="M10.1433 56.5737V48.1209H11.8943V51.9004L15.5893 48.1209H17.7266L13.6209 52.1418L17.92 56.5737H15.5773L11.8943 52.649V56.5737H10.1433Z" fill="#FF4800"/>
<path d="M18.27 56.5737V48.1209H24.7664V49.6425H20.021V51.5745H23.1484V53.0477H20.021V55.0521H24.8149V56.5737H18.27Z" fill="#FF4800"/>
<path d="M26.0586 56.5737V48.1209H27.8096V51.5261H31.6975V48.1209H33.4485V56.5737H31.6975V53.1078H27.8096V56.5737H26.0586Z" fill="#FF4800"/>
<path d="M34.9822 56.5737V48.1209H41.4786V49.6425H36.7328V51.5745H39.8605V53.0477H36.7328V55.0521H41.527V56.5737H34.9822Z" fill="#FF4800"/>
<path d="M42.7705 56.5737V48.1209H46.7433C47.3149 48.1209 47.8138 48.2174 48.2405 48.4108C48.6673 48.6041 49.0011 48.8757 49.2425 49.226C49.4839 49.5763 49.6048 49.9808 49.6048 50.4396C49.6048 50.8099 49.5105 51.1499 49.3212 51.4598C49.1318 51.7697 48.8762 52.0213 48.5544 52.2146C48.9651 52.4079 49.291 52.6694 49.5324 52.9996C49.7738 53.3299 49.8947 53.7042 49.8947 54.1225C49.8947 54.6057 49.772 55.0321 49.5265 55.4024C49.2811 55.7727 48.9349 56.0603 48.4881 56.2657C48.0413 56.471 47.5239 56.5737 46.9363 56.5737H42.7705ZM44.5215 51.5745H46.6348C47.0131 51.5745 47.3131 51.4842 47.5345 51.3029C47.7559 51.1215 47.8666 50.8783 47.8666 50.5725C47.8666 50.2666 47.7559 50.023 47.5345 49.8417C47.3131 49.6607 47.0135 49.5701 46.6348 49.5701H44.5215V51.5745ZM44.5215 55.1246H46.8037C47.2064 55.1246 47.5283 55.0259 47.7697 54.8285C48.0111 54.6312 48.132 54.3676 48.132 54.0377C48.132 53.6998 48.0111 53.4322 47.7697 53.2348C47.5283 53.0375 47.2061 52.9388 46.8037 52.9388H44.5215V55.1246Z" fill="#FF4800"/>
<path d="M54.725 56.6942C53.9603 56.6942 53.298 56.5413 52.7388 56.2355C52.1791 55.9296 51.7465 55.493 51.4407 54.9254C51.1348 54.3578 50.9819 53.6918 50.9819 52.9268V48.1209H52.7329V52.9268C52.7329 53.3615 52.8156 53.742 52.9805 54.0679C53.1458 54.3938 53.3789 54.6436 53.6811 54.8165C53.9829 54.9895 54.335 55.0761 54.7377 55.0761C55.1404 55.0761 55.4903 54.9895 55.7882 54.8165C56.086 54.6432 56.3176 54.3938 56.4825 54.0679C56.6475 53.742 56.7301 53.3615 56.7301 52.9268V48.1209H58.4691V52.9268C58.4691 53.6834 58.3162 54.3454 58.0103 54.9134C57.7045 55.481 57.2715 55.9194 56.7123 56.2296C56.1526 56.5395 55.4907 56.6946 54.7257 56.6946L54.725 56.6942Z" fill="#FF4800"/>
<path d="M59.8689 56.5737V48.1209H61.5354L65.7376 53.5789V48.1209H67.3797V56.5737H65.8341L61.523 50.9224V56.5737H59.8689Z" fill="#FF4800"/>
<path d="M73.0551 56.7066C72.4274 56.7066 71.8434 56.5959 71.3041 56.3745C70.7649 56.1532 70.2919 55.8433 69.8852 55.4446C69.4785 55.0463 69.1606 54.5831 68.9312 54.0559C68.7018 53.5287 68.5872 52.9588 68.5872 52.3471C68.5872 51.7354 68.7018 51.166 68.9312 50.6384C69.1606 50.1111 69.4789 49.6484 69.8852 49.2497C70.2919 48.8513 70.7645 48.5411 71.3041 48.3197C71.8434 48.0983 72.4271 47.9877 73.0551 47.9877C73.6829 47.9877 74.2687 48.0983 74.812 48.3197C75.3556 48.5411 75.8304 48.851 76.2367 49.2497C76.6434 49.648 76.9591 50.1111 77.1849 50.6384C77.4102 51.1656 77.5227 51.7351 77.5227 52.3471C77.5227 52.9588 77.4102 53.5283 77.1849 54.0559C76.9595 54.5831 76.6434 55.0459 76.2367 55.4446C75.83 55.8429 75.3552 56.1532 74.812 56.3745C74.2687 56.5959 73.6829 56.7066 73.0551 56.7066ZM73.0551 55.1005C73.4415 55.1005 73.7957 55.0302 74.118 54.8893C74.4398 54.7484 74.7217 54.5554 74.9631 54.3097C75.2045 54.0643 75.3938 53.7722 75.5307 53.4344C75.6676 53.0961 75.7361 52.7338 75.7361 52.3475C75.7361 51.9532 75.6676 51.5891 75.5307 51.2548C75.3938 50.9209 75.2048 50.6311 74.9631 50.3853C74.7217 50.1399 74.4398 49.9466 74.118 49.8056C73.7957 49.6647 73.4418 49.5945 73.0551 49.5945C72.6768 49.5945 72.3266 49.6647 72.0047 49.8056C71.6828 49.9466 71.401 50.1395 71.1596 50.3853C70.9182 50.6307 70.7288 50.9206 70.5919 51.2548C70.455 51.5891 70.3866 51.9492 70.3866 52.3355C70.3866 52.7298 70.455 53.0961 70.5919 53.4344C70.7288 53.7722 70.9178 54.0643 71.1596 54.3097C71.401 54.5551 71.6828 54.7484 72.0047 54.8893C72.3269 55.0302 72.6768 55.1005 73.0551 55.1005Z" fill="#FF4800"/>
<path d="M78.7305 56.5737V48.1209H82.8602C83.4319 48.1209 83.9369 48.2316 84.3756 48.453C84.8144 48.6744 85.1563 48.9824 85.402 49.3767C85.6474 49.7711 85.7702 50.2262 85.7702 50.7414C85.7702 51.2807 85.6212 51.7558 85.3234 52.1662C85.0256 52.5769 84.6269 52.8827 84.128 53.0837L85.9999 56.5733H84.0439L82.3894 53.3372H80.4815V56.5733H78.7305V56.5737ZM80.4815 51.9007H82.7033C83.0976 51.9007 83.4136 51.7962 83.651 51.5869C83.8884 51.3775 84.0072 51.1037 84.0072 50.7655C84.0072 50.4276 83.8884 50.1537 83.651 49.9444C83.4136 49.735 83.0976 49.6305 82.7033 49.6305H80.4815V51.9007Z" fill="#FF4800"/>
<path d="M1.25513 63.3658V59.1396H4.28013V59.5499H1.72009V61.0595H3.39862V61.4641H1.72009V63.3658H1.25513Z" fill="white"/>
<path d="M11.7284 63.4321C11.4225 63.4321 11.1378 63.3767 10.8742 63.266C10.6106 63.1553 10.379 63.0002 10.1798 62.8011C9.98066 62.6019 9.82592 62.3703 9.71486 62.1067C9.60417 61.8431 9.54883 61.5584 9.54883 61.2525C9.54883 60.9467 9.60417 60.6619 9.71486 60.3983C9.82555 60.1347 9.98066 59.9035 10.1798 59.704C10.379 59.5048 10.6106 59.3497 10.8742 59.239C11.1378 59.1283 11.4225 59.073 11.7284 59.073C12.0302 59.073 12.3131 59.1283 12.5768 59.239C12.8404 59.3497 13.0716 59.5048 13.2711 59.704C13.4703 59.9031 13.6254 60.1347 13.7361 60.3983C13.8468 60.6619 13.9021 60.9467 13.9021 61.2525C13.9021 61.5584 13.8468 61.8431 13.7361 62.1067C13.6254 62.3703 13.4703 62.6015 13.2711 62.8011C13.0719 63.0002 12.8404 63.1553 12.5768 63.266C12.3131 63.3767 12.0302 63.4321 11.7284 63.4321ZM11.7284 63.0035C11.9698 63.0035 12.1934 62.9591 12.3987 62.8706C12.6041 62.7821 12.7843 62.6583 12.939 62.4992C13.0942 62.3401 13.2147 62.1541 13.3013 61.9407C13.388 61.7273 13.431 61.4979 13.431 61.2525C13.431 61.0031 13.3876 60.7726 13.3013 60.5614C13.2147 60.3503 13.0942 60.1649 12.939 60.0058C12.7839 59.8467 12.6041 59.7229 12.3987 59.6344C12.1934 59.5459 11.9701 59.5015 11.7284 59.5015C11.487 59.5015 11.2623 59.5459 11.0552 59.6344C10.848 59.7229 10.6666 59.8467 10.5119 60.0058C10.3568 60.1649 10.2363 60.3499 10.1496 60.5614C10.0629 60.7726 10.0196 61.0009 10.0196 61.2467C10.0196 61.4961 10.0629 61.7277 10.1496 61.941C10.2359 62.1544 10.3568 62.3405 10.5119 62.4996C10.667 62.6587 10.848 62.7825 11.0552 62.871C11.2623 62.9595 11.487 63.0039 11.7284 63.0039V63.0035Z" fill="white"/>
<path d="M21.3925 63.4321C21.0342 63.4321 20.7244 63.3567 20.4626 63.2056C20.2008 63.0545 19.9998 62.8404 19.8589 62.5626C19.718 62.2848 19.6477 61.9571 19.6477 61.5784V59.1392H20.1127V61.5784C20.1127 61.8682 20.1651 62.1198 20.2696 62.3332C20.3741 62.5466 20.523 62.7115 20.7164 62.8284C20.9097 62.9449 21.1351 63.0035 21.3925 63.0035C21.6543 63.0035 21.8808 62.9453 22.0716 62.8284C22.2627 62.7115 22.4106 62.5466 22.5154 62.3332C22.6199 62.1198 22.6724 61.8682 22.6724 61.5784V59.1392H23.1373V61.5784C23.1373 61.9567 23.066 62.2848 22.9229 62.5626C22.7798 62.8404 22.5788 63.0549 22.3192 63.2056C22.0596 63.3567 21.7508 63.4321 21.3925 63.4321Z" fill="white"/>
<path d="M29.0825 63.3658V59.1396H29.5475L32.0893 62.5688V59.1396H32.5299V63.3658H32.1196L29.5235 59.846V63.3658H29.0825Z" fill="white"/>
<path d="M39.0244 62.9431H39.9784C40.2238 62.9431 40.4514 62.9008 40.6607 62.8164C40.8701 62.7319 41.0532 62.6132 41.2102 62.4603C41.3671 62.3073 41.4891 62.1282 41.5754 61.9228C41.662 61.7175 41.7054 61.4943 41.7054 61.2525C41.7054 61.0111 41.662 60.7875 41.5754 60.5822C41.4891 60.3768 41.3671 60.1977 41.2102 60.0448C41.0532 59.8918 40.8701 59.7731 40.6607 59.6887C40.4514 59.6042 40.2238 59.562 39.9784 59.562H39.0244V62.9431ZM38.5594 63.3658V59.1396H39.954C40.2759 59.1396 40.5719 59.192 40.8413 59.2965C41.1111 59.401 41.3456 59.5481 41.5448 59.7375C41.7439 59.9264 41.8991 60.15 42.0097 60.4078C42.1204 60.6652 42.1758 60.947 42.1758 61.2529C42.1758 61.5587 42.1215 61.8405 42.0127 62.098C41.9042 62.3554 41.7501 62.579 41.5506 62.7683C41.3514 62.9576 41.1158 63.1044 40.8442 63.2092C40.5726 63.3137 40.2758 63.3662 39.9536 63.3662H38.5591L38.5594 63.3658Z" fill="white"/>
<path d="M47.3542 63.3658L49.1053 59.1396H49.6667L51.4057 63.3658H50.8985L50.3672 62.0375H48.3749L47.8374 63.3658H47.3542ZM48.5376 61.6392H50.2041L49.3711 59.5681L48.5376 61.6392Z" fill="white"/>
<path d="M57.4046 63.3658V59.5561H55.8772V59.1396H59.397V59.5561H57.8696V63.3658H57.4046Z" fill="white"/>
<path d="M65.0645 63.3658V59.1396H65.5294V63.3658H65.0645Z" fill="white"/>
<path d="M73.5392 63.4321C73.2333 63.4321 72.9486 63.3767 72.685 63.266C72.4214 63.1553 72.1898 63.0002 71.9906 62.8011C71.7915 62.6019 71.6367 62.3703 71.5257 62.1067C71.415 61.8431 71.3596 61.5584 71.3596 61.2525C71.3596 60.9467 71.415 60.6619 71.5257 60.3983C71.6363 60.1347 71.7915 59.9035 71.9906 59.704C72.1898 59.5048 72.4214 59.3497 72.685 59.239C72.9486 59.1283 73.2333 59.073 73.5392 59.073C73.841 59.073 74.1239 59.1283 74.3876 59.239C74.6512 59.3497 74.8824 59.5048 75.0819 59.704C75.2811 59.9031 75.4362 60.1347 75.5469 60.3983C75.6576 60.6619 75.7129 60.9467 75.7129 61.2525C75.7129 61.5584 75.6576 61.8431 75.5469 62.1067C75.4362 62.3703 75.2811 62.6015 75.0819 62.8011C74.8827 63.0002 74.6512 63.1553 74.3876 63.266C74.1239 63.3767 73.841 63.4321 73.5392 63.4321ZM73.5392 63.0035C73.7806 63.0035 74.0041 62.9591 74.2095 62.8706C74.4149 62.7821 74.5951 62.6583 74.7499 62.4992C74.905 62.3401 75.0255 62.1541 75.1121 61.9407C75.1988 61.7273 75.2418 61.4979 75.2418 61.2525C75.2418 61.0031 75.1984 60.7726 75.1121 60.5614C75.0255 60.3503 74.905 60.1649 74.7499 60.0058C74.5947 59.8467 74.4149 59.7229 74.2095 59.6344C74.0041 59.5459 73.781 59.5015 73.5392 59.5015C73.2978 59.5015 73.0731 59.5459 72.8659 59.6344C72.6588 59.7229 72.4774 59.8467 72.3227 60.0058C72.1676 60.1649 72.0471 60.3499 71.9604 60.5614C71.8737 60.7726 71.8304 61.0009 71.8304 61.2467C71.8304 61.4961 71.8737 61.7277 71.9604 61.941C72.0467 62.1544 72.1676 62.3405 72.3227 62.4996C72.4778 62.6587 72.6588 62.7825 72.8659 62.871C73.0731 62.9595 73.2978 63.0039 73.5392 63.0039V63.0035Z" fill="white"/>
<path d="M81.5432 63.3658V59.1396H82.0078L84.5497 62.5688V59.1396H84.9906V63.3658H84.5799L81.9838 59.846V63.3658H81.5432Z" fill="white"/>
</svg>
