<svg width="33" height="36" viewBox="0 0 33 36" fill="none" xmlns="http://www.w3.org/2000/svg">
<g id="Group 2">
<path id="Vector" fill-rule="evenodd" clip-rule="evenodd" d="M16.91 9.86794C-1.18312 4.03661 0.921795 25.9171 14.4932 34.7856C-10.4819 22.728 1.1807 -2.3037 16.91 9.86794Z" fill="white"/>
<path id="Vector_2" fill-rule="evenodd" clip-rule="evenodd" d="M16.3029 35.3096C29.6083 32.9405 39.5416 8.8667 27.75 5.41421C15.9583 1.96172 11.3933 22.0175 16.4682 31.1113C11.5011 -5.58301 47.3109 10.748 16.3029 35.3096Z" fill="white"/>
<path id="Vector_3" d="M16.3824 7.10822C18.3453 7.10822 19.9366 5.51701 19.9366 3.55413C19.9366 1.59125 18.3453 0 16.3824 0C14.4196 0 12.8283 1.59125 12.8283 3.55413C12.8283 5.51701 14.4196 7.10822 16.3824 7.10822Z" fill="white"/>
</g>
</svg>
