<svg width="37" height="26" viewBox="0 0 37 26" fill="none" xmlns="http://www.w3.org/2000/svg">
<path id="Vector" d="M34.3167 25.1666H2.68333C2.03797 25.1666 1.41905 24.9103 0.962707 24.4539C0.506368 23.9976 0.25 23.3787 0.25 22.7333L0.25 3.26665C0.25 2.62129 0.506368 2.00236 0.962707 1.54602C1.41905 1.08968 2.03797 0.833313 2.68333 0.833313L34.3167 0.833313C34.962 0.833313 35.581 1.08968 36.0373 1.54602C36.4936 2.00236 36.75 2.62129 36.75 3.26665V22.7333C36.75 23.3787 36.4936 23.9976 36.0373 24.4539C35.581 24.9103 34.962 25.1666 34.3167 25.1666ZM29.1296 20.8262H29.1154C28.9768 20.8268 28.8398 20.8558 28.7128 20.9114C28.5859 20.9671 28.4717 21.0481 28.3773 21.1496L28.3763 21.1506C28.1765 21.3694 28.0658 21.655 28.066 21.9513C28.0662 22.2476 28.1772 22.533 28.3773 22.7516L28.3763 22.7506C28.5608 22.9503 28.8234 23.075 29.1154 23.075H29.1296C29.2603 23.0839 29.39 23.0597 29.5089 23.0048C29.6278 22.9499 29.731 22.8659 29.8089 22.7607L29.8099 22.7587V23.0284H30.2692V20.0181H29.8099V21.1435C29.7347 21.0451 29.6379 20.9653 29.527 20.9101C29.4161 20.8549 29.294 20.8259 29.1702 20.8252L29.1276 20.8262H29.1296ZM24.8206 20.8262H24.7973C24.5042 20.8262 24.2396 20.9479 24.0521 21.1435C23.852 21.3654 23.7413 21.6536 23.7415 21.9523C23.7417 22.251 23.8527 22.5391 24.0531 22.7607L24.0521 22.7597C24.2406 22.9554 24.5053 23.077 24.7983 23.077H24.8226L24.8672 23.078C24.9879 23.0781 25.1068 23.0494 25.2141 22.9944C25.3215 22.9394 25.4142 22.8596 25.4847 22.7617L25.4867 22.7597V23.0294H25.9632V20.8901H25.4877V21.1435C25.4108 21.0403 25.3097 20.9575 25.1935 20.9022C25.0772 20.8469 24.9492 20.8208 24.8206 20.8262ZM22.7441 20.8262L22.7016 20.8252C22.4031 20.8252 22.1168 20.9437 21.9058 21.1548C21.6947 21.3659 21.5761 21.6521 21.5761 21.9506C21.5761 22.2491 21.6947 22.5353 21.9058 22.7464C22.1168 22.9574 22.4031 23.076 22.7016 23.076L22.7462 23.075H22.7441L22.7857 23.076C23.0595 23.076 23.3099 22.9807 23.5076 22.8205L23.5056 22.8225L23.2835 22.4423C23.136 22.5569 22.957 22.6234 22.7705 22.6329H22.7685C22.6753 22.6389 22.5819 22.625 22.4945 22.5921C22.4071 22.5593 22.3277 22.5082 22.2615 22.4423C22.1435 22.3058 22.0787 22.1314 22.0789 21.9509C22.0791 21.7705 22.1443 21.5961 22.2625 21.4599L22.2615 21.4609C22.3189 21.4001 22.3883 21.3518 22.4652 21.319C22.5422 21.2862 22.625 21.2696 22.7087 21.2703H22.7299H22.7289C22.9305 21.2709 23.1263 21.3383 23.2856 21.4619L23.2835 21.4599L23.5056 21.0797C23.2958 20.9144 23.0365 20.8247 22.7695 20.8252L22.7441 20.8262ZM18.6075 20.8262H18.5821C18.4445 20.8264 18.3083 20.8547 18.1819 20.9092C18.0556 20.9638 17.9416 21.0435 17.8471 21.1435C17.6431 21.3641 17.5348 21.6565 17.5459 21.9567V21.9546L17.5449 22.0013C17.5449 22.3004 17.6635 22.5721 17.8552 22.7708C18.0478 22.9625 18.3134 23.0801 18.6065 23.0801L18.6409 23.0791H18.6389L18.6805 23.0801C18.9978 23.0801 19.2878 22.9655 19.5129 22.7759L19.5108 22.7779L19.2888 22.4302C19.1186 22.581 18.8997 22.6652 18.6724 22.6674C18.5181 22.6808 18.3636 22.6342 18.2427 22.5373C18.1219 22.4405 18.043 22.3008 18.0225 22.1473V22.1442H19.6224V21.9546C19.6363 21.6554 19.5334 21.3624 19.3354 21.1375L19.3365 21.1385C19.2472 21.0399 19.1383 20.9611 19.0168 20.9072C18.8952 20.8532 18.7638 20.8253 18.6308 20.8252H18.6085L18.6075 20.8262ZM15.4877 20.8901V21.3179H15.9308V22.2852C15.9308 22.8104 16.1812 23.077 16.675 23.077H16.6922C16.897 23.077 17.0866 23.0162 17.2458 22.9128L17.2418 22.9148L17.114 22.5184C16.9883 22.5894 16.8468 22.6278 16.7024 22.6299C16.5016 22.6299 16.3999 22.514 16.3992 22.2821V21.3189H17.1596V20.8911H16.3992V20.2422H15.9237V20.8911L15.4877 20.8901ZM13.4934 22.4413L13.2876 22.8063C13.538 22.9756 13.8462 23.076 14.1778 23.076H14.2082H14.2062L14.2731 23.078C14.5154 23.078 14.7415 23.0061 14.9311 22.8824L14.926 22.8854C15.0065 22.8306 15.0724 22.757 15.118 22.6709C15.1636 22.5849 15.1875 22.489 15.1876 22.3916V22.3774C15.1863 22.0206 14.9382 21.8103 14.4434 21.7448L14.2224 21.7123C13.9791 21.6704 13.8574 21.5967 13.8574 21.4913C13.8574 21.3331 13.9895 21.2541 14.2538 21.2541H14.2589C14.5073 21.2541 14.7405 21.3189 14.9423 21.4325L14.9352 21.4284L15.1258 21.0482C14.8617 20.8913 14.5578 20.8142 14.2508 20.8262H14.2538L14.1991 20.8252C13.9845 20.8249 13.7755 20.8927 13.6019 21.0188L13.6049 21.0168C13.5305 21.0741 13.4704 21.1479 13.4292 21.2323C13.388 21.3167 13.367 21.4095 13.3677 21.5035V21.5248V21.5237C13.369 21.8712 13.6171 22.077 14.1119 22.1412L14.3177 22.1736C14.5705 22.2162 14.6972 22.2902 14.6979 22.3957C14.6986 22.5748 14.5347 22.6647 14.2062 22.6654H14.1971C13.9435 22.6659 13.696 22.5872 13.4894 22.4403L13.4934 22.4433V22.4413ZM11.6867 20.8252H11.6613C11.5238 20.8255 11.3879 20.8539 11.2617 20.9084C11.1355 20.963 11.0217 21.0426 10.9273 21.1425C10.7321 21.3669 10.6246 21.6544 10.6248 21.9518C10.625 22.2492 10.7328 22.5365 10.9283 22.7607L10.9273 22.7597C11.0218 22.8597 11.1358 22.9394 11.2621 22.994C11.3885 23.0485 11.5247 23.0768 11.6623 23.077H11.6887C11.8194 23.0841 11.9488 23.0591 12.0676 23.0041C12.1864 22.9492 12.2899 22.8659 12.369 22.7617L12.37 22.7597V23.0294H12.8293V20.8901H12.37V21.1435C12.2893 21.0445 12.1876 20.9646 12.0722 20.9097C11.9568 20.8549 11.8307 20.8263 11.7029 20.8262L11.6867 20.8252ZM26.5787 20.8891V23.0284H27.038V21.8249C27.038 21.4572 27.1911 21.2726 27.4972 21.2713H27.5074C27.6088 21.272 27.7021 21.2936 27.7872 21.3362L27.7832 21.3341L27.9251 20.8901C27.8303 20.8469 27.7271 20.825 27.623 20.8262L27.5905 20.8272H27.5926H27.5753C27.4661 20.8267 27.3587 20.8556 27.2645 20.9109C27.1703 20.9662 27.0928 21.0459 27.04 21.1415L27.038 21.1446V20.8911L26.5787 20.8891ZM20.0999 20.8891V23.0284H20.5754V21.8249C20.5754 21.4572 20.7285 21.2726 21.0347 21.2713H21.0449C21.1462 21.272 21.2395 21.2936 21.3247 21.3362L21.3206 21.3341L21.4636 20.8901C21.3641 20.8481 21.2573 20.8263 21.1493 20.8262H21.13H21.1128C21.0037 20.8259 20.8966 20.8549 20.8026 20.9102C20.7086 20.9655 20.6312 21.045 20.5785 21.1405L20.5764 21.1435V20.8901L20.0999 20.8891ZM9.26347 21.2693C9.57981 21.2706 9.73831 21.4599 9.73899 21.837V23.0253H10.2145V21.6789L10.2155 21.6454C10.2151 21.4315 10.1324 21.226 9.98435 21.0716C9.81637 20.9158 9.59595 20.829 9.36689 20.8282H9.35776C9.21152 20.8182 9.06528 20.8479 8.9346 20.9143C8.80392 20.9807 8.69368 21.0813 8.6156 21.2054L8.61357 21.2084C8.54143 21.085 8.43637 20.984 8.31013 20.9169C8.1839 20.8497 8.04147 20.819 7.89878 20.8282H7.9008H7.89168C7.77255 20.828 7.65512 20.8566 7.54939 20.9115C7.44366 20.9664 7.35274 21.046 7.28436 21.1435L7.28233 21.1456V20.8921H6.80885V23.0314H7.28436V21.8411C7.28571 21.4626 7.4601 21.2733 7.80753 21.2733C8.12386 21.2747 8.28236 21.4639 8.28304 21.8411V23.0294H8.74233V21.8411C8.74368 21.4626 8.91774 21.2733 9.26449 21.2733L9.26347 21.2693ZM23.4741 2.86109H23.4407C21.8554 2.86011 20.3065 3.33557 18.9948 4.22579L19.0222 4.20855C20.3458 5.28165 21.3194 6.72508 21.8185 8.35434L21.8347 8.41517C22.074 9.17052 22.2108 10.0384 22.2108 10.9398C22.2108 11.831 22.076 12.6897 21.8266 13.4988L21.8428 13.438C21.3555 15.0831 20.3769 16.5399 19.0384 17.6132L19.0222 17.6264C20.3367 18.5084 21.885 18.9773 23.4681 18.9728C24.6036 18.9728 25.6834 18.7366 26.6618 18.3107L26.6101 18.331C28.5274 17.5271 30.057 16.0091 30.8755 14.098L30.8948 14.0463C31.3003 13.1237 31.5366 12.0479 31.5366 10.9175C31.5366 9.78697 31.3003 8.71123 30.8745 7.7379L30.8948 7.78859C30.0903 5.86935 28.5687 4.33974 26.6537 3.52519L26.602 3.50592C25.6179 3.08015 24.5566 2.86168 23.4843 2.86413H23.4731L23.4741 2.86109ZM13.5259 2.86109H13.5147C12.4243 2.86065 11.3456 3.08572 10.3463 3.52215L10.397 3.50187C8.47445 4.30114 6.94046 5.82021 6.12244 7.73486L6.10318 7.78656C5.69762 8.7092 5.46139 9.78494 5.46139 10.9154C5.46139 12.0459 5.69763 13.1216 6.12346 14.095L6.10318 14.0443C6.90713 15.9616 8.42507 17.4911 10.3362 18.3097L10.3879 18.329C11.3146 18.7345 12.3954 18.9708 13.5299 18.9708C15.1243 18.9737 16.6829 18.4983 18.0042 17.6061L17.9758 17.6243C16.645 16.5562 15.6676 15.1113 15.1714 13.4785L15.1562 13.4187C14.9112 12.6104 14.7879 11.7702 14.7902 10.9256C14.7887 9.64233 15.0725 8.3748 15.621 7.21469C16.1695 6.05458 16.969 5.03089 17.9616 4.21767L17.9768 4.20551C16.6727 3.32377 15.1335 2.85464 13.5593 2.85906H13.5228H13.5248L13.5259 2.86109ZM18.5 4.58774C17.2192 5.57816 16.2732 6.93784 15.7899 8.48311L15.7747 8.53887C15.531 9.31268 15.4079 10.1194 15.4097 10.9306C15.4097 11.7762 15.5405 12.5904 15.7828 13.3559L15.7676 13.2991C16.2402 14.8609 17.1892 16.236 18.4817 17.232L18.5 17.2451C19.7878 16.2619 20.7378 14.9023 21.2182 13.3548L21.2334 13.3001C21.474 12.5334 21.5947 11.7342 21.5913 10.9306C21.5913 10.0759 21.4575 9.25366 21.2111 8.48108L21.2263 8.53786C20.7517 6.97746 19.8061 5.602 18.5193 4.59991L18.501 4.58673L18.5 4.58774ZM29.1925 22.6319H29.1752C29.0907 22.632 29.0072 22.6144 28.9298 22.5804C28.8525 22.5463 28.7831 22.4966 28.7261 22.4342C28.6079 22.3006 28.5428 22.1283 28.543 21.9499C28.5431 21.7715 28.6086 21.5993 28.7271 21.466L28.7261 21.467C28.7866 21.4041 28.8592 21.3541 28.9395 21.3199C29.0198 21.2858 29.1062 21.2682 29.1935 21.2682C29.2808 21.2682 29.3671 21.2858 29.4474 21.3199C29.5278 21.3541 29.6003 21.4041 29.6609 21.467C29.7787 21.602 29.8435 21.7751 29.8433 21.9543C29.8431 22.1335 29.778 22.3065 29.6599 22.4413L29.6609 22.4403C29.6032 22.5017 29.5334 22.5504 29.4559 22.5834C29.3784 22.6163 29.2949 22.6329 29.2107 22.6319H29.1925ZM24.8682 22.6319H24.8459C24.7641 22.6313 24.6832 22.6143 24.6081 22.5817C24.533 22.5491 24.4653 22.5017 24.4089 22.4423C24.2952 22.3036 24.2332 22.1298 24.2334 21.9504C24.2335 21.7711 24.296 21.5973 24.41 21.4589L24.4089 21.4599C24.4652 21.4003 24.5329 21.3527 24.608 21.32C24.6831 21.2872 24.764 21.27 24.8459 21.2693H24.8692H24.8865C25.0639 21.2693 25.2241 21.3453 25.3346 21.467C25.4482 21.5896 25.5171 21.7539 25.5171 21.9344V21.9546V21.9536L25.5181 21.981C25.5177 22.1522 25.4554 22.3175 25.3427 22.4464L25.3437 22.4454C25.2866 22.5048 25.2179 22.552 25.1419 22.5841C25.0659 22.6161 24.9842 22.6324 24.9017 22.6319L24.8672 22.6309H24.8692L24.8682 22.6319ZM11.7505 22.6319L11.7211 22.6329C11.6379 22.6333 11.5554 22.6166 11.4788 22.5838C11.4022 22.551 11.3332 22.5029 11.276 22.4423C11.1623 22.3036 11.1003 22.1298 11.1005 21.9504C11.1006 21.7711 11.1631 21.5973 11.2771 21.4589L11.276 21.4599C11.337 21.3953 11.4113 21.3449 11.4938 21.3122C11.5763 21.2794 11.665 21.2651 11.7536 21.2703H11.7759C11.8585 21.2702 11.9401 21.2878 12.0153 21.3219C12.0905 21.356 12.1575 21.4058 12.2119 21.468L12.2129 21.469C12.325 21.6067 12.3861 21.7788 12.3859 21.9563C12.3857 22.1339 12.3242 22.3059 12.2119 22.4433L12.2129 22.4423C12.1564 22.5021 12.0884 22.5499 12.0129 22.5826C11.9374 22.6154 11.8561 22.6325 11.7739 22.6329H11.7516H11.7526L11.7505 22.6319ZM19.1489 21.76H18.0407C18.0548 21.6229 18.1192 21.4959 18.2215 21.4034C18.3237 21.311 18.4566 21.2597 18.5944 21.2595C18.7322 21.2592 18.8653 21.31 18.9678 21.4021C19.0704 21.4941 19.1353 21.6209 19.1499 21.758L19.1489 21.76Z" fill="white"/>
</svg>
