<svg width="40" height="26" viewBox="0 0 40 26" fill="none" xmlns="http://www.w3.org/2000/svg">
<path id="Vector" d="M36.65 26H2.85C2.16044 26 1.49912 25.7261 1.01152 25.2385C0.523928 24.7509 0.25 24.0896 0.25 23.4L0.25 2.6C0.25 1.91044 0.523928 1.24912 1.01152 0.761522C1.49912 0.273928 2.16044 0 2.85 0L36.65 0C37.3396 0 38.0009 0.273928 38.4885 0.761522C38.9761 1.24912 39.25 1.91044 39.25 2.6V23.4C39.25 24.0896 38.9761 24.7509 38.4885 25.2385C38.0009 25.7261 37.3396 26 36.65 26ZM15.4513 11.1854C15.4216 11.1855 15.3923 11.1924 15.3656 11.2055C15.339 11.2187 15.3157 11.2377 15.2975 11.2613C15.2548 11.3047 15.2304 11.3629 15.2292 11.4238C15.2292 11.4465 15.3354 11.7704 15.5629 12.4345L16.0548 13.871L16.2833 14.5405C16.5397 15.2916 16.6737 15.691 16.6852 15.7387C16.181 16.3632 15.7251 17.0252 15.3213 17.719L15.2802 17.7948L15.278 17.8219C15.278 17.9303 15.3658 18.0191 15.4752 18.0191L15.5044 18.0169H15.5033H16.8228C16.8842 18.016 16.9445 17.9998 16.998 17.9697C17.0516 17.9397 17.0967 17.8967 17.1294 17.8447L17.1305 17.8436L21.4985 11.5397C21.5216 11.5095 21.5342 11.4726 21.5343 11.4346L21.5332 11.4183V11.4194C21.532 11.3585 21.5076 11.3004 21.4649 11.2569C21.4469 11.2335 21.4237 11.2146 21.3973 11.2014C21.3708 11.1883 21.3417 11.1813 21.3122 11.1811H19.9916C19.93 11.1818 19.8695 11.1979 19.8158 11.228C19.7621 11.2581 19.7167 11.3012 19.6839 11.3533L19.6828 11.3544L17.8628 14.0259L17.1099 11.4563C17.0906 11.3779 17.0457 11.3083 16.9823 11.2585C16.9189 11.2086 16.8407 11.1814 16.76 11.1811L16.7318 11.1822H16.7329L15.4513 11.1854ZM30.5942 11.0652H30.566C29.7448 11.0652 29.0071 11.4216 28.4979 11.9871L28.4958 11.9893C27.9393 12.5654 27.6285 13.3354 27.6291 14.1364V14.1657V14.1646C27.6276 14.1971 27.6269 14.2325 27.6269 14.2708C27.6269 14.8525 27.8533 15.3823 28.2217 15.7755L28.2206 15.7744C28.43 15.9786 28.6794 16.1373 28.9531 16.2406C29.2267 16.3439 29.5188 16.3895 29.8109 16.3746H29.8055C30.1706 16.3703 30.5173 16.2955 30.8336 16.1612L30.8163 16.1677C31.1358 16.0474 31.4067 15.86 31.6201 15.6217L31.6223 15.6195C31.6114 15.6802 31.5991 15.7347 31.5854 15.7831L31.5876 15.7723C31.5696 15.8389 31.558 15.9071 31.5529 15.9759V15.9781C31.5529 16.1601 31.6273 16.2514 31.7761 16.2522H32.958C33.0042 16.2563 33.0507 16.2512 33.0948 16.237C33.1389 16.2229 33.1798 16.2 33.2149 16.1698C33.2501 16.1396 33.2788 16.1027 33.2994 16.0612C33.32 16.0197 33.3321 15.9745 33.335 15.9283V15.9272L34.037 11.4563C34.0435 11.4225 34.0424 11.3877 34.0335 11.3545C34.0247 11.3213 34.0085 11.2905 33.9861 11.2645C33.9662 11.238 33.9406 11.2164 33.9111 11.2014C33.8816 11.1864 33.8491 11.1783 33.816 11.1778H32.5128C32.3535 11.1778 32.2528 11.3674 32.2203 11.7433C32.0295 11.4987 31.7787 11.3076 31.4922 11.1886C31.2058 11.0696 30.8934 11.0267 30.5855 11.0641L30.5942 11.063V11.0652ZM11.1343 11.0652H11.1039C10.2838 11.0652 9.54608 11.4216 9.03908 11.9871L9.03692 11.9893C8.48043 12.5654 8.16966 13.3354 8.17025 14.1364V14.1657V14.1646C8.15565 14.4591 8.20071 14.7535 8.30273 15.0301C8.40474 15.3067 8.56161 15.5599 8.76392 15.7744L8.76283 15.7733C9.14633 16.146 9.67067 16.3757 10.2492 16.3757L10.3532 16.3735H10.3478C10.7074 16.3681 11.0487 16.2933 11.3596 16.1601L11.3423 16.1666C11.6662 16.0431 11.9413 15.8568 12.1634 15.6195L12.1645 15.6184C12.1244 15.7246 12.0995 15.8481 12.0963 15.9759V15.9781C12.097 16.1601 12.1714 16.2514 12.3194 16.2522H13.5003C13.5464 16.2563 13.5929 16.2512 13.637 16.237C13.6812 16.2229 13.722 16.2 13.7572 16.1698C13.7923 16.1396 13.821 16.1027 13.8417 16.0612C13.8623 16.0197 13.8744 15.9745 13.8773 15.9283V15.9272L14.5803 11.4563C14.5864 11.4228 14.5849 11.3884 14.5759 11.3556C14.5669 11.3227 14.5506 11.2924 14.5283 11.2667C14.5085 11.2402 14.4828 11.2186 14.4534 11.2036C14.4239 11.1886 14.3913 11.1805 14.3583 11.18H13.055C12.8958 11.18 12.795 11.3696 12.7636 11.7455C12.5708 11.5029 12.3195 11.3133 12.0334 11.1943C11.7473 11.0753 11.4357 11.0309 11.1278 11.0652L11.1364 11.0641L11.1343 11.0652ZM35.5797 8.66667L35.5623 8.66558C35.5106 8.6654 35.4607 8.68469 35.4226 8.71962C35.3844 8.75455 35.3609 8.80255 35.3565 8.85408L34.2428 15.9813C34.2337 16.0156 34.2336 16.0517 34.2425 16.0861C34.2514 16.1204 34.2691 16.1519 34.2938 16.1774C34.3142 16.2017 34.3398 16.2211 34.3686 16.2344C34.3974 16.2477 34.4288 16.2545 34.4606 16.2543H35.5981L35.6328 16.2565C35.7189 16.2565 35.8016 16.2223 35.8626 16.1613C35.9235 16.1004 35.9577 16.0177 35.9577 15.9315V15.9293L37.0693 8.92558L37.0703 8.90175C37.0705 8.83994 37.0503 8.77979 37.0129 8.73058V8.73167C36.9731 8.69045 36.9186 8.66668 36.8612 8.66558L36.845 8.66667H35.5797ZM22.9372 8.66667C22.8907 8.66091 22.8436 8.66493 22.7988 8.67846C22.754 8.69199 22.7125 8.71473 22.677 8.74523C22.6415 8.77573 22.6128 8.81331 22.5927 8.85556C22.5725 8.89781 22.5615 8.9438 22.5602 8.99058L21.4476 15.9803C21.4415 16.0135 21.443 16.0476 21.4518 16.0802C21.4606 16.1128 21.4766 16.1431 21.4985 16.1688C21.5176 16.1957 21.543 16.2177 21.5724 16.2327C21.6018 16.2478 21.6344 16.2556 21.6675 16.2554H23.0813C23.1449 16.256 23.2066 16.2342 23.2558 16.1938C23.3049 16.1533 23.3382 16.0969 23.3499 16.0344V16.0322L23.6587 14.0454C23.6629 14.0022 23.6757 13.9604 23.6963 13.9222C23.717 13.8841 23.7451 13.8505 23.7789 13.8233C23.8532 13.7643 23.9429 13.7258 24.0368 13.7118H24.04C24.1278 13.6955 24.2285 13.6868 24.3314 13.6858C24.4224 13.6858 24.5318 13.6915 24.6575 13.7031C24.7948 13.7191 24.9331 13.7263 25.0713 13.7248C25.8651 13.726 26.6298 13.4269 27.212 12.8873L27.2098 12.8895C27.5001 12.5817 27.7243 12.2176 27.8685 11.8198C28.0127 11.422 28.0739 10.9989 28.0483 10.5766V10.5852C28.0716 10.3059 28.0238 10.0253 27.9091 9.76952C27.7945 9.51375 27.6169 9.29123 27.3929 9.12275L27.3886 9.1195C26.8716 8.7926 26.2661 8.63402 25.6553 8.66558H25.6618L22.9372 8.66667ZM3.45667 8.66667C3.41135 8.66181 3.36552 8.66653 3.32214 8.68053C3.27877 8.69454 3.23883 8.71751 3.20491 8.74795C3.17099 8.7784 3.14385 8.81564 3.12526 8.85725C3.10667 8.89886 3.09704 8.94392 3.097 8.9895V8.99167L1.98333 15.9813C1.9773 16.0146 1.97873 16.0487 1.98754 16.0813C1.99635 16.1139 2.0123 16.1442 2.03425 16.1698C2.05339 16.1968 2.07874 16.2187 2.10816 16.2338C2.13757 16.2489 2.17019 16.2567 2.20325 16.2565H3.50758C3.55403 16.2623 3.60116 16.2582 3.64596 16.2447C3.69076 16.2312 3.73224 16.2084 3.76774 16.1779C3.80324 16.1474 3.83197 16.1099 3.85209 16.0676C3.87221 16.0254 3.88328 15.9794 3.88458 15.9326L4.19333 14.0487C4.19741 14.0056 4.21005 13.9637 4.23051 13.9256C4.25098 13.8875 4.27885 13.8538 4.3125 13.8266C4.38683 13.7675 4.47645 13.7291 4.57033 13.715H4.57358C4.66946 13.6982 4.76658 13.6895 4.86392 13.689H4.865C4.956 13.689 5.06433 13.6948 5.19 13.7063C5.32698 13.7223 5.46485 13.7295 5.60275 13.728C6.42933 13.728 7.18117 13.4106 7.7445 12.8906L7.74233 12.8928C8.03262 12.5849 8.25678 12.2209 8.40099 11.8231C8.5452 11.4253 8.60641 11.0022 8.58083 10.5798V10.5885C8.60415 10.3092 8.55626 10.0285 8.44164 9.77277C8.32701 9.517 8.14941 9.29448 7.92542 9.126L7.92108 9.12275C7.40641 8.79699 6.80371 8.63809 6.19533 8.66775H6.20183L3.45667 8.66667ZM30.5227 14.9879L30.4707 14.989C30.1939 14.9893 29.9259 14.8914 29.7145 14.7128L29.7167 14.7138C29.6196 14.6232 29.542 14.5138 29.4887 14.3921C29.4354 14.2705 29.4076 14.1392 29.4068 14.0064L29.4079 13.9577V13.9284C29.4079 13.5233 29.5715 13.156 29.8369 12.8895C30.098 12.6219 30.462 12.4562 30.865 12.4562H30.9008H30.8986L30.9354 12.4551C31.2268 12.4551 31.4923 12.5623 31.6959 12.7389L31.6948 12.7378C31.7953 12.8311 31.8754 12.9441 31.9302 13.0697C31.985 13.1953 32.0133 13.3309 32.0133 13.468L32.0123 13.52V13.5178V13.5438C32.0123 13.9436 31.8465 14.3054 31.5789 14.5622C31.4438 14.6969 31.2834 14.8036 31.107 14.8763C30.9306 14.949 30.7416 14.9862 30.5508 14.9858H30.5238L30.5227 14.9879ZM11.0454 14.9879L10.9913 14.989C10.7074 14.989 10.4463 14.885 10.247 14.7128L10.2481 14.7138C10.1528 14.6227 10.077 14.5133 10.0253 14.3921C9.97349 14.2708 9.94684 14.1404 9.94692 14.0086L9.948 13.9577V13.9284C9.948 13.5233 10.1116 13.156 10.377 12.8895C10.6381 12.6219 11.001 12.4562 11.404 12.4562H11.4419H11.4398L11.4766 12.4551C11.768 12.4551 12.0334 12.5623 12.2371 12.7389L12.236 12.7378C12.3361 12.8311 12.416 12.9439 12.4706 13.0693C12.5252 13.1948 12.5534 13.3301 12.5534 13.4669L12.5523 13.52V13.5178V13.5557C12.5523 13.9555 12.3866 14.3152 12.119 14.5719C11.8416 14.8395 11.4709 14.9887 11.0855 14.9879H11.0454ZM23.9447 12.2146L24.2361 10.3827C24.2384 10.3557 24.246 10.3294 24.2585 10.3054C24.271 10.2814 24.2881 10.2601 24.3088 10.2427C24.3295 10.2253 24.3535 10.2121 24.3793 10.204C24.4051 10.1958 24.4323 10.1929 24.4593 10.1953H24.7669L24.833 10.1942C25.0208 10.1942 25.2053 10.2068 25.3866 10.2321L25.366 10.2299C25.5339 10.2603 25.6802 10.3361 25.795 10.4444C25.861 10.5059 25.9134 10.5804 25.949 10.6632C25.9847 10.746 26.0027 10.8353 26.0019 10.9254L26.0008 10.9666V10.9644C26.0238 11.1454 26.0016 11.3293 25.9362 11.4996C25.8708 11.6699 25.7642 11.8214 25.626 11.9405L25.6249 11.9416C25.2797 12.1385 24.8839 12.229 24.4874 12.2016H24.4939L23.9468 12.2189L23.9447 12.2146ZM4.46742 12.2146L4.75883 10.3827C4.76115 10.3557 4.76877 10.3294 4.78124 10.3054C4.79372 10.2814 4.81081 10.2601 4.83154 10.2427C4.85227 10.2253 4.87623 10.2121 4.90205 10.204C4.92787 10.1958 4.95503 10.1929 4.982 10.1953H5.30592C5.65274 10.1701 5.99988 10.2398 6.31017 10.3968L6.29933 10.3913C6.50444 10.5235 6.57306 10.8001 6.50517 11.2212C6.5003 11.3782 6.45757 11.5317 6.38061 11.6686C6.30365 11.8056 6.19475 11.9219 6.06317 12.0077L6.05992 12.0098C5.54668 12.1999 4.99666 12.2696 4.45225 12.2135L4.46742 12.2146Z" fill="white"/>
</svg>
