<svg width="37" height="36" viewBox="0 0 37 36" fill="none" xmlns="http://www.w3.org/2000/svg">
<g clip-path="url(#clip0_58_4809)">
<path d="M32.875 31.5H3.625C1.7575 31.5 0.25 29.9925 0.25 28.125V7.875C0.25 6.0075 1.7575 4.5 3.625 4.5H32.875C34.7425 4.5 36.25 6.0075 36.25 7.875V28.125C36.25 29.9925 34.7425 31.5 32.875 31.5ZM3.625 6.75C2.995 6.75 2.5 7.245 2.5 7.875V28.125C2.5 28.755 2.995 29.25 3.625 29.25H32.875C33.505 29.25 34 28.755 34 28.125V7.875C34 7.245 33.505 6.75 32.875 6.75H3.625Z" fill="white"/>
<path fill-rule="evenodd" clip-rule="evenodd" d="M19.375 13.905L17.485 14.31V12.78L19.375 12.375V13.905ZM23.29 14.76C22.5475 14.76 22.075 15.0975 21.8275 15.345L21.7375 14.8725H20.095V23.6025L21.9625 23.1975V21.0825C22.2325 21.285 22.6375 21.555 23.29 21.555C24.64 21.555 25.855 20.475 25.855 18.1125C25.855 15.9525 24.6175 14.76 23.29 14.76ZM22.84 19.9125C22.39 19.9125 22.1425 19.755 21.9625 19.5525V16.785C22.1425 16.56 22.4125 16.425 22.84 16.425C23.515 16.425 23.9875 17.19 23.9875 18.1575C23.9875 19.125 23.515 19.9125 22.84 19.9125ZM31.75 18.18C31.75 16.2675 30.8275 14.76 29.05 14.76C27.2725 14.76 26.1925 16.2675 26.1925 18.18C26.1925 20.43 27.475 21.5775 29.2975 21.5775C30.1975 21.5775 30.8725 21.375 31.3675 21.0825V19.575C30.85 19.8225 30.265 19.98 29.5225 19.98C28.78 19.98 28.15 19.7325 28.06 18.8325H31.7275V18.1575L31.75 18.18ZM28.0375 17.46C28.0375 16.605 28.555 16.2675 29.0275 16.2675C29.5 16.2675 29.9725 16.6275 29.9725 17.46H28.0375ZM17.485 14.8725H19.375V21.42H17.485V14.8725ZM15.3475 14.8725L15.46 15.435C15.91 14.625 16.7875 14.7825 17.0125 14.8725V16.5825C16.7875 16.4925 16.0225 16.4025 15.595 16.965V21.3975H13.7275V14.85H15.3475V14.8725ZM11.725 13.2525L9.9025 13.635V19.62C9.9025 20.7225 10.735 21.5325 11.8375 21.5325C12.445 21.5325 12.895 21.42 13.1425 21.285V19.755C12.895 19.845 11.725 20.205 11.725 19.08V16.425H13.1425V14.8275H11.725V13.2075V13.2525ZM7.2925 16.38C6.8875 16.38 6.6625 16.4925 6.6625 16.785C6.6625 17.1 7.0675 17.235 7.585 17.415C8.4175 17.7075 9.52 18.0675 9.52 19.4625C9.52 20.8125 8.44 21.5775 6.8875 21.5775C6.235 21.5775 5.5375 21.4425 4.84 21.15V19.3725C5.47 19.71 6.2575 19.98 6.8875 19.98C7.315 19.98 7.6075 19.8675 7.6075 19.53C7.6075 19.1925 7.1575 19.0125 6.6175 18.81C5.785 18.5175 4.75 18.135 4.75 16.8975C4.75 15.57 5.7625 14.7825 7.2925 14.7825C7.9225 14.7825 8.53 14.8725 9.16 15.12V16.875C8.5975 16.56 7.8775 16.4025 7.2925 16.4025V16.38Z" fill="white"/>
</g>
<defs>
<clipPath id="clip0_58_4809">
<rect width="36" height="36" fill="white" transform="translate(0.25)"/>
</clipPath>
</defs>
</svg>
