<svg width="37" height="28" viewBox="0 0 37 28" fill="none" xmlns="http://www.w3.org/2000/svg">
<path id="Vector" d="M29.6313 12.4562C29.6313 12.4562 30.1062 14.7812 30.2125 15.2687H28.125C28.3312 14.7124 29.125 12.5499 29.125 12.5499C29.1125 12.5687 29.3312 11.9812 29.4562 11.6187L29.6313 12.4562ZM36.25 2.99994V24.9999C36.25 26.6562 34.9062 27.9999 33.25 27.9999H3.25C1.59375 27.9999 0.25 26.6562 0.25 24.9999V2.99994C0.25 1.34369 1.59375 -6.10352e-05 3.25 -6.10352e-05H33.25C34.9062 -6.10352e-05 36.25 1.34369 36.25 2.99994ZM9.78125 18.6999L13.7312 8.99994H11.075L8.61875 15.6249L8.35 14.2812L7.475 9.81869C7.33125 9.19994 6.8875 9.02494 6.3375 8.99994H2.29375L2.25 9.19369C3.2375 9.44369 4.11875 9.80619 4.8875 10.2624L7.125 18.6999H9.78125ZM15.6812 18.7124L17.2563 8.99994H14.7437L13.175 18.7124H15.6812ZM24.425 15.5374C24.4375 14.4312 23.7625 13.5874 22.3188 12.8937C21.4375 12.4499 20.9 12.1499 20.9 11.6937C20.9125 11.2812 21.3563 10.8562 22.3438 10.8562C23.1625 10.8374 23.7625 11.0312 24.2125 11.2249L24.4375 11.3312L24.7812 9.23119C24.2875 9.03744 23.5 8.81869 22.5312 8.81869C20.05 8.81869 18.3063 10.1437 18.2938 12.0312C18.275 13.4249 19.5437 14.1999 20.4937 14.6687C21.4625 15.1437 21.7938 15.4562 21.7938 15.8749C21.7812 16.5249 21.0063 16.8249 20.2875 16.8249C19.2875 16.8249 18.75 16.6687 17.9312 16.3062L17.6 16.1499L17.25 18.3312C17.8375 18.5999 18.925 18.8374 20.05 18.8499C22.6875 18.8562 24.4062 17.5499 24.425 15.5374ZM33.25 18.7124L31.225 8.99994H29.2812C28.6812 8.99994 28.225 9.17494 27.9688 9.80619L24.2375 18.7124H26.875C26.875 18.7124 27.3062 17.5124 27.4 17.2562H30.625C30.7 17.5999 30.925 18.7124 30.925 18.7124H33.25Z" fill="white"/>
</svg>
